<svg xmlns="http://www.w3.org/2000/svg" xmlns:xlink="http://www.w3.org/1999/xlink" version="1.1" id="Capa_1" x="0" y="0" viewBox="0 0 512 512" xml:space="preserve" width="512" height="512"><path d="M469.772 108.472h-59.929v-1.724c0-31-25.22-56.22-56.22-56.22s-56.22 25.22-56.22 56.22v1.724h-70.381c-23.174 0-42.027 18.854-42.027 42.027v47.483h-63.029c-15.036 0-28.401 9.005-34.048 22.941-.082.204-.158.411-.228.62L51.329 331.682c-.33.196-.751.428-1.275.69l-.006.002c-2.079 1.038-5.962 2.618-12.654 4.253A48.648 48.648 0 00.201 384.004v52.039c0 17.424 14.175 31.6 31.599 31.6l44.58.001C81.087 492.853 103.24 512 129.794 512c26.553 0 48.706-19.147 53.414-44.355l157.223.003c4.708 25.207 26.86 44.352 53.413 44.352 26.552 0 48.704-19.144 53.413-44.351l28.311.001c21.671 0 36.231-14.561 36.231-36.231V171.35c0-56.751-29.391-62.878-42.027-62.878zm-152.369-1.724c0-19.972 16.248-36.22 36.22-36.22 19.972 0 36.22 16.248 36.22 36.22v1.724h-72.44v-1.724zM106.567 228.164a16.665 16.665 0 0115.398-10.182h63.029v113.339H72.51l34.057-103.157zM129.794 492c-18.941 0-34.351-15.409-34.351-34.351 0-.234.013-.465.018-.699.007-.357.009-.715.027-1.07.003-.056.01-.111.013-.167 1.008-18.043 16.004-32.415 34.293-32.415 16.55 0 30.404 11.767 33.637 27.373l.014.06c.109.529.203 1.063.287 1.601l.016.089c.06.391.104.786.15 1.181.021.18.05.357.068.537.031.308.048.621.071.931.02.271.048.539.062.811.014.28.014.564.021.846.008.307.023.612.023.921.002 18.943-15.408 34.352-34.349 34.352zm264.05 0c-18.941 0-34.351-15.409-34.351-34.351 0-.447.017-.891.034-1.334.005-.143.004-.289.011-.431.017-.33.049-.655.075-.982.02-.253.032-.509.058-.761.011-.107.029-.212.04-.318.116-1.044.273-2.076.481-3.089.006-.03.014-.059.021-.089 3.243-15.593 17.089-27.346 33.631-27.346 4.735 0 9.25.963 13.358 2.704 12.325 5.222 20.992 17.441 20.992 31.647 0 18.941-15.409 34.35-34.35 34.35zm81.724-44.351l-28.295-.001c-.033-.177-.076-.351-.111-.528a59.057 59.057 0 00-.813-3.502 54.676 54.676 0 00-.431-1.514c-.094-.312-.186-.625-.284-.935a51.983 51.983 0 00-.529-1.56c-.098-.277-.191-.557-.294-.832a51.574 51.574 0 00-.702-1.776c-.077-.186-.147-.376-.226-.561a55.041 55.041 0 00-1.044-2.306c-.046-.095-.096-.186-.142-.28a55.457 55.457 0 00-.996-1.942c-.127-.235-.262-.464-.392-.697a52.323 52.323 0 00-.847-1.471c-.158-.263-.322-.521-.485-.782a48.422 48.422 0 00-1.393-2.123 55.771 55.771 0 00-1.47-2.031 54.682 54.682 0 00-.964-1.226c-.195-.241-.387-.483-.586-.721a56.47 56.47 0 00-1.087-1.255c-.182-.204-.359-.413-.544-.614a52.78 52.78 0 00-1.405-1.473c-.103-.104-.201-.213-.305-.316a54.505 54.505 0 00-1.808-1.724c-.131-.12-.268-.233-.401-.352-.482-.431-.97-.858-1.468-1.272-.218-.182-.443-.356-.664-.534a58.86 58.86 0 00-1.279-1.006c-.254-.192-.511-.379-.768-.566a52.4 52.4 0 00-3.349-2.263c-.28-.175-.561-.348-.845-.518-.443-.265-.891-.52-1.342-.772-.277-.155-.553-.313-.833-.463-.49-.263-.987-.514-1.486-.762-.248-.124-.493-.253-.743-.372a53.403 53.403 0 00-1.979-.896c-.102-.044-.202-.093-.305-.137a54.067 54.067 0 00-2.344-.926c-.225-.083-.454-.156-.681-.236-.566-.2-1.133-.397-1.707-.579-.301-.095-.605-.181-.908-.271-.509-.151-1.019-.3-1.534-.437-.33-.088-.662-.168-.995-.25a53.374 53.374 0 00-2.535-.559 53.784 53.784 0 00-1.514-.271c-.347-.057-.694-.115-1.043-.165a54.588 54.588 0 00-1.581-.201c-.335-.039-.669-.081-1.006-.113a56.24 56.24 0 00-1.757-.134c-.287-.018-.571-.044-.859-.058a55.294 55.294 0 00-2.646-.067c-.887 0-1.769.025-2.646.067-.288.014-.573.04-.86.058-.587.038-1.173.078-1.755.134-.338.033-.672.075-1.008.114-.528.061-1.055.125-1.578.201-.35.051-.699.108-1.047.166a58.021 58.021 0 00-2.552.483 56.46 56.46 0 00-1.489.345c-.336.082-.671.164-1.004.252-.51.135-1.015.282-1.519.432-.308.092-.618.179-.924.276a53.03 53.03 0 00-1.673.567c-.238.084-.479.161-.716.249-.786.29-1.564.596-2.332.921-.127.054-.251.114-.378.169-.641.277-1.277.562-1.905.862-.265.127-.524.263-.787.394-.482.241-.964.483-1.438.737-.293.157-.582.322-.872.485a57.57 57.57 0 00-1.3.748 58.83 58.83 0 00-2.976 1.912 53.27 53.27 0 00-1.201.855c-.273.199-.547.397-.816.601-.411.312-.814.633-1.216.956-.242.195-.487.385-.726.584-.462.385-.914.782-1.363 1.181-.167.148-.338.291-.503.441a53.917 53.917 0 00-1.782 1.699c-.147.146-.286.3-.432.448-.431.44-.859.883-1.276 1.338-.208.228-.409.462-.613.693-.343.387-.684.775-1.016 1.172-.216.259-.426.522-.637.785-.308.382-.612.766-.91 1.156a56.863 56.863 0 00-2.053 2.885c-.273.41-.537.826-.798 1.244-.179.286-.36.571-.533.86-.27.449-.528.905-.784 1.363-.15.267-.305.531-.451.802-.308.57-.601 1.15-.888 1.732-.081.164-.168.323-.247.488a54.484 54.484 0 00-1.027 2.267c-.099.233-.188.471-.284.706-.221.539-.439 1.08-.643 1.628-.114.306-.217.616-.326.923a56.03 56.03 0 00-.497 1.465c-.107.334-.206.672-.307 1.009a53.415 53.415 0 00-.677 2.483c-.119.481-.23.965-.336 1.452-.077.353-.153.706-.223 1.061-.033.168-.074.333-.105.501l-157.194-.003c-.033-.173-.074-.344-.108-.517-.067-.342-.141-.681-.214-1.02a53.02 53.02 0 00-1.025-3.978c-.097-.326-.194-.652-.297-.976a53.854 53.854 0 00-.508-1.499c-.105-.298-.206-.598-.316-.894a50.448 50.448 0 00-.655-1.657c-.092-.226-.178-.456-.274-.68a53.492 53.492 0 00-1.03-2.273c-.073-.151-.153-.297-.227-.447a51.951 51.951 0 00-.91-1.774c-.142-.264-.294-.523-.441-.784-.26-.463-.521-.925-.794-1.379-.172-.287-.351-.568-.528-.851a54.313 54.313 0 00-.803-1.252 57.932 57.932 0 00-2.052-2.882c-.297-.39-.601-.774-.909-1.155-.212-.263-.423-.528-.639-.787a59.188 59.188 0 00-1.012-1.168c-.206-.232-.408-.468-.617-.697-.412-.45-.836-.889-1.263-1.325-.15-.153-.293-.311-.445-.461a53.732 53.732 0 00-1.779-1.696c-.168-.154-.344-.299-.514-.451a54.003 54.003 0 00-1.352-1.171c-.242-.201-.49-.394-.735-.591-.398-.32-.798-.639-1.206-.948-.271-.206-.547-.405-.822-.606a56.11 56.11 0 00-1.195-.851 57.022 57.022 0 00-2.095-1.371 50.085 50.085 0 00-.887-.544 51.488 51.488 0 00-1.292-.744c-.292-.164-.583-.33-.879-.488a54.782 54.782 0 00-1.427-.732c-.266-.133-.529-.271-.798-.4a56.705 56.705 0 00-1.878-.851c-.135-.059-.267-.123-.403-.181a54.674 54.674 0 00-2.329-.92c-.241-.089-.486-.167-.729-.253a54.865 54.865 0 00-1.66-.563c-.308-.098-.621-.186-.932-.278a55.462 55.462 0 00-1.511-.43c-.335-.089-.672-.171-1.009-.253a50.845 50.845 0 00-4.038-.828c-.348-.057-.696-.115-1.047-.166a54.897 54.897 0 00-1.579-.201c-.335-.039-.669-.081-1.006-.114a56.474 56.474 0 00-1.757-.134c-.287-.018-.571-.044-.859-.058a55.26 55.26 0 00-2.646-.067c-.887 0-1.768.025-2.646.067-.288.014-.573.04-.86.058-.587.038-1.173.078-1.755.134-.338.033-.673.075-1.009.114a54.69 54.69 0 00-1.576.201c-.352.051-.701.109-1.05.166a53.075 53.075 0 00-2.551.483c-.496.107-.989.222-1.481.343-.339.083-.679.166-1.015.255a54.66 54.66 0 00-1.5.427c-.314.093-.63.183-.942.281-.55.174-1.094.364-1.637.555-.251.088-.504.169-.753.261-.782.289-1.556.593-2.32.916-.155.066-.306.139-.46.206-.611.265-1.219.537-1.819.824-.28.134-.554.278-.832.417a53.61 53.61 0 00-1.392.714c-.304.163-.603.334-.904.503-.424.238-.847.478-1.264.728a57.07 57.07 0 00-2.111 1.328c-.3.198-.598.398-.894.602-.392.27-.778.547-1.163.827-.285.208-.572.415-.853.629-.393.299-.779.606-1.164.915-.259.208-.521.411-.775.624-.433.36-.855.732-1.276 1.105-.196.173-.396.341-.59.517a55.838 55.838 0 00-1.761 1.679c-.178.178-.348.364-.524.544-.399.409-.796.819-1.182 1.24-.225.245-.441.498-.661.747-.326.369-.651.738-.966 1.116-.228.272-.45.55-.672.827a55.37 55.37 0 00-.873 1.111 55.198 55.198 0 00-1.463 2.016 55.04 55.04 0 00-.614.902c-.263.396-.517.797-.77 1.199-.188.3-.377.598-.559.902-.259.431-.506.869-.753 1.307-.16.285-.325.567-.481.855a54.49 54.49 0 00-.837 1.632c-.098.196-.202.388-.297.586-.356.74-.695 1.489-1.018 2.247-.11.258-.208.521-.314.781-.21.515-.419 1.03-.613 1.552-.119.319-.227.642-.34.964-.166.473-.33.946-.483 1.424-.11.343-.212.689-.315 1.035-.139.467-.274.935-.401 1.407a51.085 51.085 0 00-.605 2.498c-.078.36-.156.719-.227 1.082-.032.164-.072.326-.103.49H31.8c-6.396 0-11.599-5.203-11.599-11.6v-52.039a28.694 28.694 0 0121.938-27.947c5.699-1.393 10.594-2.981 14.591-4.735h363.192c5.522 0 10-4.477 10-10 0-5.522-4.478-10-10-10H204.995V150.499c0-12.145 9.882-22.027 22.027-22.027h242.749c19.166 0 22.027 26.864 22.027 42.878v260.068h.001c0 14.123-10.17 16.231-16.231 16.231z" data-original="#000000" class="active-path" data-old_color="#f1cdb3" fill="#f1cdb3"/><path d="M430.798 211.753c.001-13.128-9.22-24.136-21.523-26.907.066-.691.118-1.385.138-2.088v-.001c.229-8.137-2.811-15.872-8.558-21.783-5.845-6.011-14.008-9.458-22.398-9.458-10.138 0-19.167 4.933-24.82 12.529-5.649-7.596-14.686-12.529-24.847-12.529-8.315 0-16.422 3.402-22.241 9.336-5.779 5.892-8.875 13.641-8.717 21.817.014.733.064 1.458.129 2.179-12.298 2.775-21.513 13.78-21.513 26.905 0 11.107 6.602 20.695 16.084 25.064-6.68 8.266-10.578 18.726-10.578 29.785 0 26.116 21.247 47.363 47.363 47.363 8.602 0 17-2.351 24.306-6.721a47.37 47.37 0 0024.306 6.721c26.116 0 47.363-21.247 47.363-47.363 0-11.06-3.898-21.519-10.578-29.785 9.483-4.369 16.084-13.957 16.084-25.064zm-52.341-40.236c3.021 0 5.958 1.239 8.059 3.399 1.949 2.005 2.98 4.589 2.905 7.278-.173 6.131-5.143 11.174-11.08 11.242a11.14 11.14 0 01-4.611-1.004c-.179-.083-.355-.172-.535-.253a10.409 10.409 0 01-2.476-1.819c-2.089-2.073-3.233-4.858-3.221-7.844.024-6.065 4.941-10.999 10.959-10.999zm-57.631 3.34a11.07 11.07 0 017.963-3.341c6.036 0 10.952 4.922 10.959 10.971a11.017 11.017 0 01-3.303 7.922 10.575 10.575 0 01-2.409 1.777c-.327.148-.646.307-.969.462a10.428 10.428 0 01-4.113.789c-6.019-.099-11.01-5.102-11.127-11.153-.054-2.764 1.012-5.4 2.999-7.427zm-24.378 36.897c-.001-4.184 3.403-7.587 7.585-7.587 4.184 0 7.587 3.403 7.587 7.587 0 .859-.15 1.681-.414 2.452-.25.503-.491 1.011-.723 1.524-1.338 2.162-3.725 3.61-6.449 3.61-4.183 0-7.586-3.403-7.586-7.586zm81.481 82.213a27.353 27.353 0 01-17.796-6.59 9.974 9.974 0 00-6.51-2.409 9.981 9.981 0 00-6.51 2.409 27.353 27.353 0 01-17.796 6.59c-15.088 0-27.363-12.275-27.363-27.363 0-11.437 7.211-21.766 17.943-25.701a9.999 9.999 0 006.506-8.373 27.423 27.423 0 012.06-7.984c.356-.677.69-1.367.99-2.075a27.25 27.25 0 0111.853-11.581c.435-.191.865-.392 1.291-.604a27.444 27.444 0 0111.026-2.296c3.909 0 7.632.815 11.005 2.287.426.211.856.411 1.291.602a27.248 27.248 0 0111.874 11.592c.3.708.634 1.398.99 2.075a27.423 27.423 0 012.06 7.984 9.999 9.999 0 006.506 8.373c10.732 3.936 17.943 14.264 17.943 25.701 0 15.087-12.275 27.363-27.363 27.363zm25.284-74.627c-2.724 0-5.111-1.448-6.449-3.61a48.281 48.281 0 00-.723-1.524 7.542 7.542 0 01-.414-2.452c0-4.184 3.403-7.587 7.587-7.587 4.183 0 7.586 3.403 7.586 7.587-.001 4.182-3.404 7.586-7.587 7.586zm66.686 120.08a9.997 9.997 0 00-.569-1.87 9.937 9.937 0 00-.92-1.73 9.57 9.57 0 00-1.24-1.52 9.57 9.57 0 00-1.52-1.24 10.199 10.199 0 00-3.6-1.49 9.847 9.847 0 00-3.9 0c-.64.131-1.27.32-1.88.57-.6.25-1.18.561-1.72.92-.55.36-1.06.78-1.52 1.24-.461.46-.881.97-1.25 1.52-.36.54-.671 1.12-.91 1.73-.25.6-.45 1.23-.57 1.87-.13.64-.2 1.3-.2 1.95 0 .649.07 1.31.2 1.96.12.63.32 1.26.57 1.87.25.6.56 1.18.92 1.72.359.55.779 1.06 1.24 1.52.46.46.97.88 1.52 1.25.54.36 1.12.66 1.72.91.61.25 1.24.45 1.88.57.641.13 1.301.2 1.95.2.65 0 1.311-.07 1.95-.2.64-.12 1.27-.32 1.87-.57.61-.25 1.19-.55 1.73-.91.551-.37 1.061-.79 1.52-1.25.46-.46.88-.97 1.24-1.52.359-.54.67-1.12.92-1.72.25-.61.439-1.24.569-1.87.131-.65.2-1.311.2-1.96 0-.65-.069-1.31-.2-1.95zM353.623 0c-5.522 0-10 4.477-10 10v16.74c0 5.523 4.478 10 10 10 5.523 0 10-4.478 10-10V10c0-5.523-4.477-10-10-10zm-42.129 38.883l-13.958-10.959a10 10 0 00-14.041 1.69c-3.41 4.344-2.653 10.63 1.69 14.04l13.958 10.959a9.958 9.958 0 006.169 2.135 9.986 9.986 0 007.872-3.824c3.411-4.345 2.654-10.631-1.69-14.041zm112.257-9.27c-3.41-4.344-9.695-5.101-14.041-1.69l-13.958 10.959c-4.344 3.41-5.101 9.696-1.69 14.041a9.976 9.976 0 007.872 3.825 9.96 9.96 0 006.169-2.135l13.958-10.959c4.344-3.41 5.101-9.696 1.69-14.041z" data-original="#000000" class="active-path" data-old_color="#f1cdb3" fill="#f1cdb3"/></svg>