<svg xmlns="http://www.w3.org/2000/svg" xmlns:xlink="http://www.w3.org/1999/xlink" version="1.1" id="Layer_1" x="0" y="0" viewBox="0 0 512 512" xml:space="preserve" width="512" height="512"><path d="M437.019 74.98C388.667 26.63 324.38 0 256 0S123.333 26.63 74.981 74.98C26.628 123.333 0 187.619 0 256s26.628 132.667 74.981 181.02C123.333 485.37 187.62 512 256 512s132.667-26.63 181.019-74.98C485.372 388.667 512 324.381 512 256s-26.628-132.667-74.981-181.02zM90.721 421.278c-40.337-40.337-64.104-92.825-67.907-149.208l.003.006c6.114.209 12.36.782 18.674 1.721 45.254 6.722 90.795 31.043 128.232 68.48 37.437 37.438 61.757 82.978 68.48 128.233a165.132 165.132 0 011.715 18.563c-54.387-3.718-107.713-26.312-149.197-67.795zm171.476 68.264a187.112 187.112 0 00-1.976-22.304c-7.42-49.942-33.969-99.912-74.759-140.702-40.79-40.79-90.759-67.339-140.703-74.759a186.959 186.959 0 00-22.416-1.979c.194-7.475.738-14.89 1.622-22.229 7.932.26 15.992.99 24.066 2.189 54.632 8.115 109.029 36.895 153.172 81.037 44.141 44.14 72.921 98.538 81.037 153.17a211.588 211.588 0 012.182 23.939 234.837 234.837 0 01-22.225 1.638zm159.081-68.264c-32.656 32.654-72.648 53.605-114.72 62.859a235.146 235.146 0 00-2.296-23.442c-8.813-59.323-39.823-118.147-87.316-165.641-47.495-47.494-106.32-78.502-165.641-87.315a234.694 234.694 0 00-23.532-2.302l-.061.05c9.459-43.151 31.023-82.779 63.01-114.766 31.239-31.239 69.192-51.765 109.256-61.588a233.616 233.616 0 002.453 27.479c8.812 59.321 39.821 118.146 87.315 165.641 47.494 47.494 106.319 78.502 165.643 87.315a233.022 233.022 0 0027.56 2.456l.1-.166c-10.027 41.076-31.109 78.759-61.771 109.42zm66.036-131.435c-9.393-.094-18.993-.859-28.654-2.294-54.634-8.116-109.032-36.895-153.173-81.037s-72.921-98.539-81.036-153.17c-1.429-9.619-2.196-19.177-2.294-28.525a235.324 235.324 0 0122.281-2.157c-.017 8.935.651 18.108 2.032 27.411 7.42 49.943 33.97 99.913 74.76 140.702 4.346 4.345 11.394 4.345 15.741 0 4.346-4.346 4.346-11.394 0-15.742-37.437-37.437-61.757-82.977-68.48-128.232-1.223-8.237-1.825-16.332-1.806-24.181 56.245 2.55 111.74 25.247 154.595 68.104 41.62 41.62 65.602 96.175 68.212 154.597-7.899.017-16.016-.58-24.29-1.809-6.079-.903-11.743 3.295-12.645 9.375-.904 6.081 3.294 11.741 9.374 12.644 9.194 1.366 18.264 2.05 27.1 2.05.144 0 .285-.008.429-.008a236.447 236.447 0 01-2.146 22.272z" data-original="#000000" class="active-path" data-old_color="#f1cdb3" fill="#f1cdb3"/><path d="M393.828 219.947a11.17 11.17 0 00-7.869 3.262 11.164 11.164 0 00-3.261 7.868c0 2.928 1.18 5.799 3.261 7.869 2.07 2.071 4.942 3.261 7.869 3.261s5.799-1.19 7.869-3.261a11.215 11.215 0 003.261-7.869c0-2.927-1.191-5.799-3.261-7.868a11.17 11.17 0 00-7.869-3.262z" data-original="#000000" class="active-path" data-old_color="#f1cdb3" fill="#f1cdb3"/></svg>