<svg xmlns="http://www.w3.org/2000/svg" xmlns:xlink="http://www.w3.org/1999/xlink" version="1.1" id="Capa_1" x="0" y="0" viewBox="0 0 512 512" xml:space="preserve" width="512" height="512"><path d="M511.765 180.695c-1.898-35.461-16.915-68.76-42.284-93.765-25.706-25.337-59.251-39.291-94.458-39.291-55.689 0-100.817 46.301-118.822 67.877C238.783 93.795 194.949 47.64 136.98 47.64c-35.205 0-68.748 13.954-94.454 39.291C17.157 111.936 2.141 145.236.243 180.697c-1.887 35.369 7.146 66.127 29.291 99.733 20.149 30.573 73.033 79.261 112.197 111.666 32.619 26.989 90.87 72.265 114.508 72.265 24.017 0 82.015-45.174 114.451-72.102 38.863-32.265 91.461-80.914 111.8-111.838 14.902-22.676 31.698-54.502 29.275-99.726zM478.3 247.572h-21.129a54.164 54.164 0 002.474-16.222c0-13.558-5.103-26.331-13.75-36.088a30.735 30.735 0 0011.217-7.158c5.849-5.838 9.07-13.604 9.07-21.868 0-15.794-11.924-28.849-27.241-30.656a34.92 34.92 0 00.323-4.68c0-19.233-15.648-34.881-34.881-34.881-11.525 0-21.758 5.622-28.113 14.264-6.361-8.573-16.554-14.141-28.025-14.141-19.234 0-34.881 15.647-34.881 34.882 0 1.556.113 3.086.311 4.589-15.194 1.921-26.985 14.917-26.985 30.623 0 8.248 3.211 16.003 9.042 21.836a30.766 30.766 0 0011.247 7.187c-8.649 9.758-13.753 22.532-13.753 36.091 0 23.113 14.508 42.89 34.891 50.736l-16.777 42.416-54.883-103.686a9.997 9.997 0 00-8.813-5.321h-.025a10 10 0 00-8.815 5.278l-43.604 81.4-8.954-22.887c-2.012-5.143-7.813-7.679-12.956-5.669-5.143 2.012-7.682 7.813-5.669 12.956l16.849 43.066a9.998 9.998 0 0018.128 1.078l44.969-83.948 56.252 106.271a10.002 10.002 0 0018.137-1.002L348.2 285.69a54.346 54.346 0 0028.236-8.291 54.345 54.345 0 0028.855 8.302c16.067 0 30.522-7.013 40.481-18.132h21.208c-.399.62-.796 1.24-1.205 1.862-15.496 23.568-58.843 66.744-107.861 107.439-59.643 49.517-93.482 67.49-101.675 67.49-8.026 0-41.748-18.022-101.758-67.674-36.965-30.585-70.621-62.415-91.655-86.258h31.927a10 10 0 009.256-6.215l32.044-78.353 8.733 22.323c2.012 5.143 7.814 7.684 12.956 5.669 5.143-2.012 7.681-7.813 5.669-12.956l-17.84-45.6a9.999 9.999 0 00-9.236-6.356h-.077a10 10 0 00-9.255 6.215l-38.964 95.273H46.915c-.226-.334-.466-.678-.681-1.004-19.639-29.805-27.664-56.84-26.019-87.661 3.367-62.926 55.747-114.122 116.764-114.122 63.382 0 110.245 69.194 110.705 69.885a10 10 0 008.196 4.469c3.284.061 6.413-1.544 8.314-4.244.493-.701 50.036-70.109 110.829-70.109 61.02 0 113.404 51.195 116.771 114.125 1.236 23.103-2.987 44.111-13.494 65.805zm-142.541-48.491a9.997 9.997 0 006.506-8.373 34.414 34.414 0 013.002-10.974l.096-.198a34.203 34.203 0 0116.186-16.274c.589-.244 1.173-.5 1.745-.775a34.48 34.48 0 0113.144-2.591c4.792 0 9.36.979 13.516 2.746.334.152.668.306 1.007.448a34.203 34.203 0 0116.486 16.308c.067.141.135.282.205.422a34.425 34.425 0 012.961 10.888 9.997 9.997 0 006.506 8.373c13.475 4.94 22.528 17.908 22.528 32.268 0 18.942-15.411 34.353-34.354 34.353a34.342 34.342 0 01-22.344-8.273c-1.873-1.607-4.192-2.41-6.511-2.41s-4.638.804-6.511 2.41a34.333 34.333 0 01-22.342 8.273c-18.943 0-34.354-15.411-34.354-34.353.001-14.359 9.053-27.327 22.528-32.268zm-25.878-25.151a10.815 10.815 0 01-3.187-7.696c0-5.997 4.879-10.877 10.877-10.877 2.947 0 5.712 1.152 7.785 3.242 2.018 2.036 3.117 4.718 3.093 7.551a11.068 11.068 0 01-.842 4.142c-.187.383-.376.766-.555 1.155-1.871 3.371-5.43 5.661-9.489 5.664h-.01c-2.898 0-5.621-1.13-7.672-3.181zm23.488-42.907c0-8.206 6.676-14.882 14.881-14.882 8.206 0 14.881 6.676 14.881 14.882-.001 5.763-3.3 10.76-8.102 13.231-.524.223-1.047.449-1.562.688-1.626.612-3.38.962-5.217.962-8.206 0-14.881-6.676-14.881-14.881zm56.136-.124c0-8.205 6.675-14.881 14.881-14.881s14.881 6.676 14.881 14.881-6.676 14.881-14.881 14.881c-1.877 0-3.667-.364-5.322-1.001-.359-.163-.724-.315-1.086-.47-5.002-2.4-8.473-7.501-8.473-13.41zm45.842 46.212h-.022c-4.057-.007-7.613-2.287-9.488-5.641-.187-.407-.384-.806-.58-1.207a11.017 11.017 0 01-.828-4.104c-.021-2.841 1.081-5.527 3.104-7.565a10.875 10.875 0 017.774-3.236c5.998 0 10.877 4.879 10.877 10.877 0 2.914-1.136 5.654-3.199 7.712a10.742 10.742 0 01-7.638 3.164z" data-original="#000000" class="active-path" data-old_color="#f1cdb3" fill="#f1cdb3"/><path d="M175.226 251.259c-.12-.64-.32-1.27-.57-1.87a10.048 10.048 0 00-2.16-3.25 10.153 10.153 0 00-3.24-2.16c-.61-.25-1.24-.439-1.88-.569a9.81 9.81 0 00-3.9 0 10.096 10.096 0 00-5.12 2.729 10 10 0 00-1.24 1.521 10.122 10.122 0 00-1.69 5.559 10.098 10.098 0 001.69 5.55c.36.54.78 1.061 1.24 1.52.46.46.97.88 1.52 1.24a10.096 10.096 0 003.6 1.489c.64.13 1.3.2 1.95.2 2.63 0 5.21-1.07 7.07-2.93.46-.458.88-.979 1.24-1.519s.67-1.13.92-1.73c.25-.6.45-1.23.57-1.87.13-.64.2-1.3.2-1.95 0-.66-.07-1.309-.2-1.96z" data-original="#000000" class="active-path" data-old_color="#f1cdb3" fill="#f1cdb3"/></svg>