<svg xmlns="http://www.w3.org/2000/svg" xmlns:xlink="http://www.w3.org/1999/xlink" version="1.1" id="Capa_1" x="0" y="0" viewBox="0 0 511.999 512" xml:space="preserve" width="512" height="512"><path d="M492.069 170.379L261.906 1.931a10 10 0 00-11.813 0L19.931 170.379c-4.456 3.262-5.425 9.519-2.163 13.976l30.083 41.105a9.996 9.996 0 0013.976 2.163l9.078-6.644v281.02c0 5.522 4.478 10 10 10h350.718c5.522 0 10-4.478 10-10V221.366l8.55 6.257a9.997 9.997 0 0013.975-2.163l30.083-41.105c3.263-4.458 2.294-10.714-2.162-13.976zm-70.446 282.618H185.031c-5.522 0-10 4.478-10 10s4.478 10 10 10h236.592V492H90.904V214.23h234.182c5.522 0 10-4.478 10-10s-4.478-10-10-10H107.46L256 85.515l165.623 121.214v246.268zm32.292-247.419l-16.385-11.992-.001-.001L261.906 65.054A9.988 9.988 0 00256 63.123a9.985 9.985 0 00-5.906 1.931L58.084 205.578l-18.271-24.966L256.001 22.391l216.188 158.221-18.274 24.966z" data-original="#000000" class="active-path" data-old_color="#f1cdb3" fill="#f1cdb3"/><path d="M370.92 202.28c-.13-.641-.33-1.271-.58-1.881-.25-.6-.56-1.18-.92-1.72a9.57 9.57 0 00-1.24-1.52 10.077 10.077 0 00-7.07-2.931c-2.63 0-5.21 1.07-7.069 2.931-.46.46-.88.97-1.24 1.52-.36.54-.67 1.12-.92 1.72-.25.61-.45 1.24-.57 1.881-.13.64-.2 1.3-.2 1.949 0 .65.07 1.311.2 1.95.12.639.32 1.27.57 1.88.25.601.56 1.181.92 1.721.36.55.78 1.059 1.24 1.52.46.46.97.88 1.52 1.24.54.359 1.12.67 1.73.92.6.25 1.229.45 1.87.57.64.13 1.3.199 1.949.199.65 0 1.311-.069 1.95-.199a9.352 9.352 0 001.87-.57c.61-.25 1.19-.561 1.73-.92.55-.36 1.059-.78 1.52-1.24.46-.46.88-.97 1.24-1.52.36-.54.67-1.12.92-1.721.25-.609.45-1.24.58-1.88s.189-1.3.189-1.95c0-.649-.06-1.31-.189-1.949zM158.808 461.041a9.997 9.997 0 00-.569-1.87c-.25-.601-.561-1.19-.921-1.73a9.974 9.974 0 00-1.239-1.52c-.46-.46-.971-.87-1.52-1.24a10.122 10.122 0 00-3.6-1.49 9.898 9.898 0 00-3.91 0c-.63.13-1.26.32-1.87.57-.6.25-1.18.56-1.72.92-.55.36-1.061.78-1.52 1.24-.47.46-.88.98-1.25 1.52a10.096 10.096 0 00-1.489 3.6c-.131.65-.19 1.3-.19 1.95a9.872 9.872 0 00.759 3.829c.25.601.561 1.181.92 1.73.37.54.78 1.05 1.25 1.52.46.461.971.881 1.52 1.24.54.36 1.12.67 1.72.92.61.25 1.24.44 1.87.57.65.13 1.31.2 1.96.2a10.098 10.098 0 005.55-1.69 9.462 9.462 0 001.52-1.24c.46-.47.88-.979 1.239-1.52a10.086 10.086 0 001.69-5.559c0-.65-.07-1.301-.2-1.95zM380.215 260.9c0-8.481-3.326-16.44-9.366-22.409-5.982-5.911-14.162-9.22-22.503-9.148a31.733 31.733 0 00-7.788 1.055 345.573 345.573 0 00-54.091 18.747 132.042 132.042 0 00-30.466-3.544c-5.777 0-11.605.379-17.326 1.127a131.38 131.38 0 00-13.139 2.417 345.527 345.527 0 00-54.082-18.745 13.29 13.29 0 00-.268-.072c-9.842-2.506-19.992-.252-27.846 6.192-7.852 6.442-12.045 15.954-11.506 26.09a343.876 343.876 0 003.067 31.091 347.588 347.588 0 005.135 27.534 108.857 108.857 0 00-6.427 24.601 77.669 77.669 0 00-.738 10.614c0 44.765 39.036 81.185 87.02 81.185h72.223c26.301 0 50.907-10.938 67.51-30.009 15.215-17.477 21.881-39.424 18.77-61.796a109.458 109.458 0 00-2.954-14.209 110.435 110.435 0 00-3.468-10.38 345.817 345.817 0 008.197-58.604c.031-.585.046-1.161.046-1.737zm-20.019.622l-.002.034a325.584 325.584 0 01-8.415 58.186 10.005 10.005 0 00.523 6.23 90.759 90.759 0 013.867 11.016 89.458 89.458 0 012.411 11.597c2.302 16.555-2.686 32.859-14.046 45.908-12.803 14.706-31.91 23.141-52.425 23.141h-72.223c-36.954 0-67.02-27.447-67.02-61.184 0-2.59.185-5.239.548-7.866a89.04 89.04 0 016.279-22.604 9.999 9.999 0 00.527-6.237 327.571 327.571 0 01-5.531-28.91 323.748 323.748 0 01-2.888-29.279c-.198-3.72 1.34-7.209 4.221-9.573 2.11-1.732 4.674-2.64 7.313-2.64.899 0 1.808.105 2.711.32l.199.053a325.112 325.112 0 0154.207 19.074 10.01 10.01 0 006.729.564 111 111 0 0114.088-2.794c4.857-.635 9.813-.957 14.726-.957 9.794 0 19.487 1.262 28.813 3.751 2.238.594 4.614.399 6.722-.56a325.597 325.597 0 0154.404-19.129 11.748 11.748 0 012.607-.322h.13c2.989 0 5.941 1.226 8.115 3.374a11.426 11.426 0 013.425 8.184c.001.207-.004.413-.015.623z" data-original="#000000" class="active-path" data-old_color="#f1cdb3" fill="#f1cdb3"/><path d="M274.755 371.765c-4.827 0-8.755-3.927-8.755-8.754 0-5.522-4.477-10-10-10s-10 4.478-10 10v.365c0 4.827-3.927 8.755-8.754 8.755-5.523 0-10 4.478-10 10s4.477 10 10 10c7.26 0 13.898-2.707 18.964-7.162a28.626 28.626 0 0018.545 6.796c5.522 0 10-4.478 10-10 0-5.523-4.478-10-10-10zm-53.711-46.079l-14.854-6.806a9.985 9.985 0 00-8.33 0l-14.855 6.806c-5.021 2.3-7.227 8.235-4.926 13.256a9.998 9.998 0 0013.256 4.926l10.689-4.897 10.689 4.897c5.018 2.303 10.956.095 13.256-4.926 2.302-5.021.095-10.957-4.925-13.256zm107.951-.001l-14.854-6.806a9.989 9.989 0 00-8.33 0l-14.854 6.806c-5.021 2.3-7.227 8.235-4.926 13.256 2.301 5.023 8.236 7.23 13.256 4.926l10.689-4.897 10.689 4.897a9.956 9.956 0 004.159.911c3.79 0 7.415-2.166 9.097-5.837 2.301-5.021.096-10.956-4.926-13.256z" data-original="#000000" class="active-path" data-old_color="#f1cdb3" fill="#f1cdb3"/></svg>