<svg xmlns="http://www.w3.org/2000/svg" xmlns:xlink="http://www.w3.org/1999/xlink" version="1.1" id="Capa_1" x="0" y="0" viewBox="0 0 335.802 335.802" xml:space="preserve" width="512" height="512"><path d="M290.821 291.621H44.988C20.18 291.621 0 271.428 0 246.633V89.169c0-24.808 20.18-44.988 44.988-44.988h245.826c24.795 0 44.988 20.18 44.988 44.988v157.464c.007 24.801-20.18 44.988-44.981 44.988zM44.988 57.035c-17.725 0-32.134 14.409-32.134 32.134v157.464c0 17.719 14.409 32.134 32.134 32.134h245.826c17.719 0 32.134-14.415 32.134-32.134V89.169c0-17.725-14.415-32.134-32.134-32.134H44.988zm186.757 24.936c16.035 0 29.036 12.995 29.036 29.036s-12.995 29.043-29.036 29.043-29.036-13.001-29.036-29.043 13.001-29.036 29.036-29.036zm40.483 0c16.035 0 29.043 12.995 29.043 29.036s-13.001 29.043-29.043 29.043c-16.041 0-29.036-13.001-29.036-29.043s13.001-29.036 29.036-29.036zM34.544 216.645h53.529v19.281H34.544v-19.281zm71.062 0h53.536v19.281h-53.536v-19.281zm71.048 0h53.548v19.281h-53.548v-19.281zm71.062 0h53.548v19.281h-53.548v-19.281zM34.544 81.977h101.191v19.281H34.544V81.977zm0 38.259h53.542v19.281H34.544v-19.281z" data-original="#000000" class="active-path" data-old_color="#000000" fill="#292929"/></svg>