<svg xmlns="http://www.w3.org/2000/svg" xmlns:xlink="http://www.w3.org/1999/xlink" version="1.1" id="Capa_1" x="0" y="0" viewBox="0 0 512.001 512.001" xml:space="preserve" width="512" height="512"><path d="M488.935 85.623c-13.304-10.704-32.065-20.222-55.768-28.288C385.694 41.178 322.774 32.28 255.998 32.28S126.303 41.179 78.83 57.335c-23.702 8.066-42.464 17.584-55.768 28.288C7.76 97.937 0 111.523 0 126.002v111.922c0 14.48 7.76 28.066 23.063 40.379 13.304 10.704 32.065 20.222 55.768 28.288C123.926 321.939 182.963 330.73 246 331.573v40.125h-34.485c-3.82-20.186-21.591-35.498-42.871-35.498-24.059 0-43.631 19.573-43.631 43.63 0 10.46 3.71 20.364 10.274 28.13a43.495 43.495 0 00-10.274 28.13c0 24.058 19.572 43.63 43.631 43.63 21.28 0 39.051-15.313 42.871-35.498h88.971c3.82 20.186 21.591 35.498 42.871 35.498 24.059 0 43.631-19.573 43.631-43.63 0-10.46-3.71-20.364-10.274-28.13a43.495 43.495 0 0010.274-28.13c0-24.058-19.572-43.63-43.631-43.63-21.28 0-39.051 15.313-42.871 35.498h-34.485v-40.125c63.037-.843 122.074-9.634 167.169-24.982 23.702-8.066 42.464-17.584 55.768-28.288 15.303-12.313 23.063-25.899 23.063-40.379V126.002c-.003-14.479-7.763-28.065-23.066-40.379zM309.779 391.699a10.002 10.002 0 009.985-10.552 24.944 24.944 0 01-.039-1.316c0-13.03 10.601-23.63 23.631-23.63s23.631 10.601 23.631 23.63c0 7.985-3.998 15.375-10.694 19.77a10 10 0 000 16.72c6.696 4.395 10.694 11.785 10.694 19.77 0 13.03-10.601 23.63-23.631 23.63s-23.631-10.601-23.631-23.63c0-.442.016-.88.039-1.316a9.997 9.997 0 00-9.985-10.552h-107.56a10.002 10.002 0 00-9.985 10.552c.023.436.039.874.039 1.316 0 13.03-10.601 23.63-23.631 23.63s-23.631-10.601-23.631-23.63c0-7.985 3.998-15.375 10.694-19.77a10 10 0 000-16.72c-6.696-4.395-10.694-11.785-10.694-19.77 0-13.03 10.601-23.63 23.631-23.63s23.631 10.601 23.631 23.63c0 .442-.016.88-.039 1.316a9.997 9.997 0 009.985 10.552h107.56zm-53.78-80.052c-13.281 0-24.086-10.805-24.086-24.086s10.805-24.086 24.086-24.086 24.086 10.805 24.086 24.086-10.805 24.086-24.086 24.086zm235.999-73.723c0 31.64-79.799 66.557-198.481 72.755a43.812 43.812 0 006.568-23.119c0-3.151-.339-6.224-.97-9.19 38.811-2.545 74.863-8.336 104.935-16.917 5.31-1.516 8.388-7.049 6.872-12.36-1.516-5.311-7.047-8.388-12.36-6.872-30.861 8.806-68.501 14.549-109.101 16.685-8.092-9.436-20.086-15.431-33.462-15.431-13.446 0-25.498 6.058-33.591 15.581-27.519-1.313-53.67-4.251-77.765-8.784-5.422-1.023-10.655 2.551-11.676 7.978-1.021 5.428 2.551 10.655 7.979 11.677 22.461 4.226 46.596 7.117 71.891 8.647a44.076 44.076 0 00-.923 8.987 43.818 43.818 0 006.568 23.119C99.799 304.482 20 269.565 20 237.924v-74.112l.136.114a95.405 95.405 0 002.926 2.455 108.081 108.081 0 004.085 3.11l.021.015c.746.543 1.507 1.083 2.282 1.62l.346.238c.729.501 1.468 1 2.222 1.495.152.1.308.2.462.3.761.495 1.531.989 2.317 1.478l.339.208c11.818 7.308 26.44 13.952 43.693 19.824 47.473 16.157 110.392 25.055 177.169 25.055s129.696-8.898 177.169-25.055c17.255-5.872 31.878-12.517 43.697-19.826l.335-.205c.787-.49 1.558-.984 2.32-1.48l.46-.298c.754-.495 1.494-.994 2.223-1.495l.346-.238c.775-.537 1.536-1.077 2.282-1.62l.021-.015a107.282 107.282 0 004.085-3.11 97.098 97.098 0 002.926-2.455l.136-.114v74.111zM64.25 167.57c8.711-3.982 20.626-8.555 36.464-12.996 43.033-12.066 98.182-18.71 155.285-18.71s112.252 6.645 155.284 18.71c15.839 4.44 27.755 9.013 36.465 12.996-41.384 18.443-109.127 32.155-191.749 32.155S105.634 186.012 64.25 167.57zm427.685-40.102a19.845 19.845 0 01-.209 1.742l-.013.091a21.345 21.345 0 01-.405 1.825 22.66 22.66 0 01-.384 1.295l-.082.251a25.307 25.307 0 01-.736 1.874c-.106.243-.221.485-.336.728-.23.484-.472.966-.734 1.443l-.07.128c-4.161 7.51-12.016 14.079-19.816 19.209-10.358-5.967-26.97-13.588-52.466-20.737-44.741-12.544-101.806-19.451-160.684-19.451s-115.942 6.908-160.685 19.452c-25.495 7.148-42.106 14.769-52.465 20.737-7.799-5.129-15.654-11.699-19.816-19.209l-.07-.128c-.262-.478-.504-.96-.735-1.445-.114-.242-.229-.483-.334-.725-.09-.204-.175-.409-.259-.614-.171-.42-.334-.84-.478-1.26-.029-.083-.055-.168-.083-.251a22.104 22.104 0 01-.477-1.656 20.765 20.765 0 01-.312-1.464l-.013-.091a19.768 19.768 0 01-.209-1.742 19.03 19.03 0 01-.064-1.468c0-34.87 96.921-73.722 235.999-73.722s235.999 38.852 235.999 73.722c0 .488-.026.977-.063 1.466z" data-original="#000000" class="active-path" data-old_color="#f1cdb3" fill="#f1cdb3"/><path d="M411.107 97.502a10.096 10.096 0 00-2.729-5.12 10 10 0 00-1.521-1.24 10.098 10.098 0 00-3.599-1.49 9.898 9.898 0 00-3.91 0c-.64.13-1.26.32-1.87.57-.6.25-1.18.56-1.72.92-.55.36-1.06.78-1.53 1.24-.46.46-.87.98-1.239 1.52a10.096 10.096 0 00-1.49 3.6c-.13.65-.19 1.3-.19 1.95 0 .66.061 1.31.19 1.96a10.096 10.096 0 001.49 3.6c.369.54.779 1.05 1.239 1.52.471.46.981.87 1.53 1.24.54.36 1.12.67 1.72.92.61.25 1.231.44 1.87.57.65.13 1.311.2 1.96.2.65 0 1.311-.07 1.95-.2.64-.13 1.271-.32 1.87-.57.6-.25 1.18-.56 1.729-.92.54-.37 1.061-.78 1.521-1.24.46-.47.88-.98 1.24-1.52a10.096 10.096 0 001.489-3.6c.131-.65.2-1.3.2-1.96 0-.651-.069-1.301-.2-1.95zm-40.053-15.213c-34.453-6.482-73.668-9.909-113.403-9.909-54.995 0-108.16 6.528-149.701 18.383-5.31 1.516-8.388 7.049-6.872 12.36 1.252 4.395 5.256 7.259 9.61 7.259.908 0 1.832-.124 2.749-.386 39.806-11.359 91.021-17.615 144.213-17.615 38.516 0 76.451 3.307 109.705 9.564 5.43 1.019 10.655-2.551 11.677-7.979 1.022-5.428-2.551-10.654-7.978-11.677zM120.499 250.812c-.13-.64-.32-1.27-.57-1.88-.25-.6-.56-1.18-.92-1.72a9.63 9.63 0 00-1.25-1.52c-.46-.46-.97-.88-1.52-1.25-.54-.36-1.12-.66-1.721-.91a9.766 9.766 0 00-1.87-.57 9.893 9.893 0 00-3.909 0c-.641.12-1.271.32-1.87.57-.61.25-1.19.55-1.73.91-.55.37-1.06.79-1.52 1.25-.46.46-.88.97-1.24 1.52-.36.54-.67 1.12-.92 1.72-.25.61-.44 1.24-.57 1.88-.13.64-.2 1.3-.2 1.95a10.098 10.098 0 00.77 3.82c.25.61.56 1.19.92 1.73.36.55.78 1.059 1.24 1.52.46.46.97.88 1.52 1.24.54.37 1.12.67 1.73.92.6.25 1.229.45 1.87.57.64.13 1.3.2 1.949.2.65 0 1.311-.07 1.96-.2a9.766 9.766 0 001.87-.57 9.457 9.457 0 001.721-.92 9.57 9.57 0 001.52-1.24 9.87 9.87 0 002.17-3.25 9.839 9.839 0 00.759-3.82c0-.651-.06-1.31-.189-1.95z" data-original="#000000" class="active-path" data-old_color="#f1cdb3" fill="#f1cdb3"/></svg>