<svg xmlns="http://www.w3.org/2000/svg" xmlns:xlink="http://www.w3.org/1999/xlink" version="1.1" id="Capa_1" x="0" y="0" viewBox="0 0 512 512" xml:space="preserve" width="512" height="512"><path d="M256 0C161.896 0 85.333 76.563 85.333 170.667c0 28.25 7.063 56.26 20.49 81.104L246.667 506.5c1.875 3.396 5.448 5.5 9.333 5.5s7.458-2.104 9.333-5.5l140.896-254.813c13.375-24.76 20.438-52.771 20.438-81.021C426.667 76.563 350.104 0 256 0zm131.51 241.448L256 479.292l-131.458-237.75c-11.698-21.646-17.875-46.156-17.875-70.875 0-82.344 66.99-149.333 149.333-149.333s149.333 66.99 149.333 149.333c0 24.718-6.177 49.229-17.823 70.781z" data-original="#000000" class="active-path" data-old_color="#f1cdb3" fill="#f1cdb3"/><path d="M256 85.333c-47.052 0-85.333 38.281-85.333 85.333C170.667 217.719 208.948 256 256 256s85.333-38.281 85.333-85.333S303.052 85.333 256 85.333zm0 149.334c-35.292 0-64-28.708-64-64s28.708-64 64-64 64 28.708 64 64c0 35.291-28.708 64-64 64z" data-original="#000000" class="active-path" data-old_color="#f1cdb3" fill="#f1cdb3"/></svg>