<svg xmlns="http://www.w3.org/2000/svg" xmlns:xlink="http://www.w3.org/1999/xlink" version="1.1" id="Capa_1" x="0" y="0" viewBox="0 0 511.999 511.999" xml:space="preserve" width="512" height="512"><path d="M509.069 135.667L376.333 2.928c-3.905-3.904-10.235-3.904-14.143 0l-35.35 35.348a10.001 10.001 0 000 14.142l41.993 41.992-39.756 39.756-61.193-61.193c-3.906-3.905-10.237-3.904-14.143 0l-40.605 40.605a10.001 10.001 0 000 14.142l12.896 12.896L60.29 306.364c-15.23 15.23-15.23 40.013 0 55.246l12.725 12.725-23.332 23.332a9.999 9.999 0 000 14.142l18.182 18.183L2.93 494.926c-3.905 3.905-3.905 10.237 0 14.143 1.953 1.953 4.512 2.929 7.071 2.929s5.119-.976 7.071-2.929l64.936-64.936 18.183 18.183a10.001 10.001 0 0014.142 0l23.332-23.332 12.725 12.725c7.378 7.378 17.189 11.441 27.623 11.441 10.434 0 20.245-4.063 27.623-11.441L371.38 285.966l12.896 12.896a9.968 9.968 0 007.071 2.929c2.56 0 5.118-.976 7.071-2.929l40.604-40.605a10.001 10.001 0 000-14.142l-61.193-61.193 39.756-39.756 41.992 41.992a9.968 9.968 0 007.071 2.929c2.56 0 5.118-.976 7.071-2.929l35.349-35.349c3.907-3.904 3.907-10.236.001-14.142zM211.08 183.859l46.266 46.266a9.968 9.968 0 007.071 2.929c2.56 0 5.118-.976 7.071-2.929 3.905-3.905 3.905-10.237 0-14.142l-46.266-46.266 14.953-14.953 86.09 86.09-45.733 45.733-86.091-86.091 16.639-16.637zM107.262 441.102l-18.178-18.177-.005-.005-.005-.005-18.178-18.178 16.262-16.26 36.364 36.364-16.26 16.261zm84.23-3.536c-7.432 7.432-19.527 7.433-26.959 0l-90.101-90.1c-7.433-7.433-7.433-19.528 0-26.96l14.244-14.244 24.624 24.624c1.953 1.953 4.512 2.929 7.071 2.929s5.119-.976 7.071-2.929c3.905-3.905 3.905-10.237 0-14.143l-24.624-24.624 16.457-16.458 46.265 46.265c1.953 1.953 4.512 2.929 7.071 2.929s5.119-.977 7.071-2.929c3.905-3.905 3.905-10.237 0-14.142l-46.266-46.266 16.458-16.458 24.624 24.624c1.953 1.953 4.512 2.929 7.071 2.929s5.119-.976 7.071-2.929c3.905-3.905 3.905-10.237 0-14.143l-24.624-24.624 16.278-16.278 86.091 86.09-65.031 65.032c-3.905 3.905-3.905 10.237 0 14.143 1.953 1.953 4.512 2.929 7.071 2.929s5.119-.977 7.071-2.929l65.031-65.032 16.826 16.826-105.861 105.868zm120.011-120.009l-16.826-16.828 45.733-45.734 16.826 16.826-45.733 45.736zm106.306-66.371l-26.462 26.462L234.35 120.652l26.462-26.462 156.997 156.996zm-54.121-82.406l-20.469-20.469 39.756-39.757 20.469 20.469-39.756 39.757zm102.963-4.835L348.055 45.348l21.207-21.207 118.596 118.596-21.207 21.208z" data-original="#000000" class="active-path" data-old_color="#f1cdb3" fill="#f1cdb3"/><path d="M190.428 398.683c-.12-.64-.32-1.27-.57-1.87a9.87 9.87 0 00-.92-1.73c-.36-.55-.78-1.06-1.24-1.52s-.97-.88-1.52-1.24a9.87 9.87 0 00-1.73-.92c-.6-.25-1.23-.44-1.87-.57a9.847 9.847 0 00-3.9 0c-.64.13-1.27.32-1.87.57-.61.25-1.19.56-1.73.92-.55.36-1.06.78-1.52 1.24s-.88.97-1.24 1.52c-.36.539-.67 1.12-.92 1.73-.25.6-.45 1.23-.57 1.87-.13.64-.2 1.3-.2 1.95s.07 1.31.2 1.96c.12.63.32 1.26.57 1.87.25.6.56 1.18.92 1.72.36.55.78 1.06 1.24 1.52a9.87 9.87 0 003.25 2.17 9.84 9.84 0 003.82.76 9.84 9.84 0 003.82-.76 9.87 9.87 0 003.25-2.17c.46-.46.88-.97 1.24-1.52.36-.54.67-1.12.92-1.72.25-.61.45-1.24.57-1.87.13-.65.2-1.31.2-1.96 0-.65-.07-1.31-.2-1.95z" data-original="#000000" class="active-path" data-old_color="#f1cdb3" fill="#f1cdb3"/></svg>