<svg xmlns="http://www.w3.org/2000/svg" xmlns:xlink="http://www.w3.org/1999/xlink" version="1.1" id="Layer_1" x="0" y="0" viewBox="0 0 512.001 512.001" xml:space="preserve" width="512" height="512"><path d="M511.873 336.617l-24.401-163.934c-.395-47.603-29.291-91.743-79.442-121.229-41.537-24.419-95.528-37.868-152.029-37.868-56.503 0-110.495 13.449-152.032 37.868-50.15 29.486-79.047 73.626-79.441 121.229L.127 336.617c-.084.567-.127 1.14-.127 1.714 0 48.204 32.124 92.843 88.136 122.471 45.856 24.255 105.471 37.613 167.865 37.613 62.392 0 122.008-13.358 167.864-37.613 56.011-29.628 88.136-74.267 88.136-122.471a11.699 11.699 0 00-.128-1.714zM115.77 71.527c38.014-22.348 87.815-34.656 140.231-34.656 52.415 0 102.216 12.308 140.229 34.656 43.2 25.398 67.978 62.629 67.978 102.144s-24.777 76.745-67.977 102.144c-38.014 22.348-87.815 34.656-140.23 34.656s-102.217-12.308-140.23-34.656c-43.2-25.398-67.978-62.629-67.978-102.144S72.57 96.926 115.77 71.527zm297.207 368.692c-42.562 22.513-98.31 34.911-156.976 34.911-58.667 0-114.416-12.398-156.977-34.911-47.792-25.281-75.348-62.073-75.735-101.056l16.029-107.685c13.352 24.977 35.373 47.192 64.653 64.407 41.537 24.419 95.528 37.868 152.03 37.868 56.501 0 110.494-13.449 152.03-37.868 29.28-17.215 51.301-39.431 64.653-64.407l16.029 107.685c-.388 38.984-27.944 75.776-75.736 101.056z" data-original="#000000" class="active-path" data-old_color="#f1cdb3" fill="#f1cdb3"/><path d="M256.001 287.18c79.815 0 150.253-30.883 175.271-76.842 6.403-11.747 9.651-24.085 9.651-36.668 0-31.507-20.064-60.654-56.495-82.071C349.939 71.325 304.33 60.16 256.001 60.16S162.062 71.326 127.574 91.6c-36.432 21.417-56.496 50.563-56.496 82.071 0 12.584 3.247 24.921 9.648 36.662 25.022 45.964 95.459 76.847 175.275 76.847zm0-23.284c-66.948 0-127.76-24.053-151.419-59.158 23.668-35.085 84.489-59.114 151.419-59.114s127.752 24.029 151.42 59.115c-23.655 35.104-84.47 59.157-151.42 59.157zm-161.64-90.225c.001-22.917 15.986-44.935 45.012-61.999C170.34 93.469 211.758 83.444 256 83.444c44.241 0 85.661 10.025 116.627 28.229 29.026 17.063 45.012 39.08 45.012 61.998 0 2.042-.138 4.079-.393 6.111-32.109-35.04-93.271-57.442-161.246-57.442s-129.136 22.403-161.245 57.442a49.045 49.045 0 01-.394-6.111zM256 352.958a11.645 11.645 0 00-8.422 3.604c-7.584 7.945-32.325 35.363-32.325 54.606 0 22.468 18.279 40.747 40.747 40.747s40.747-18.279 40.747-40.747c0-19.243-24.742-46.661-32.325-54.606a11.645 11.645 0 00-8.422-3.604zm0 75.674c-9.629 0-17.463-7.834-17.463-17.463 0-5.169 8.126-17.658 17.463-28.993 9.338 11.337 17.463 23.824 17.463 28.993 0 9.629-7.834 17.463-17.463 17.463z" data-original="#000000" class="active-path" data-old_color="#f1cdb3" fill="#f1cdb3"/><path d="M203.813 200.447h-3.589c-6.43 0-11.642 5.212-11.642 11.642s5.212 11.642 11.642 11.642h3.589c6.43 0 11.642-5.212 11.642-11.642s-5.212-11.642-11.642-11.642zm138.152 0h-83.047c-6.43 0-11.642 5.212-11.642 11.642s5.212 11.642 11.642 11.642h83.047c6.43 0 11.642-5.212 11.642-11.642s-5.212-11.642-11.642-11.642z" data-original="#000000" class="active-path" data-old_color="#f1cdb3" fill="#f1cdb3"/></svg>