<svg xmlns="http://www.w3.org/2000/svg" xmlns:xlink="http://www.w3.org/1999/xlink" version="1.1" id="Layer_1" x="0" y="0" viewBox="0 0 512 512" xml:space="preserve" width="512" height="512"><path d="M451.395 217.581L402.286 83.177V12.19c0-6.732-5.459-12.19-12.19-12.19h-268.19c-6.732 0-12.19 5.459-12.19 12.19v70.986L60.605 217.581a144.372 144.372 0 00-8.795 49.699v202.706C51.81 493.152 70.657 512 93.824 512h324.352c23.167 0 42.014-18.848 42.014-42.014V267.28c0-17.006-2.959-33.728-8.795-49.699zm-317.3-193.2h243.81v48.762h-243.81V24.381zM435.81 427.794H263.746c-6.732 0-12.19 5.459-12.19 12.19 0 6.732 5.459 12.19 12.19 12.19H435.81v17.81c0 9.723-7.91 17.634-17.634 17.634H93.824c-9.723 0-17.633-7.91-17.633-17.634V267.28a120.08 120.08 0 017.314-41.332L130.43 97.524h251.14l46.925 128.424a120.085 120.085 0 017.314 41.332v160.514z" data-original="#000000" class="active-path" data-old_color="#f1cdb3" fill="#f1cdb3"/><path d="M303.931 288.469c-3.98-24.984-25.678-44.143-51.767-44.143-26.089 0-47.787 19.159-51.767 44.143-20.625 8.481-34.119 29.616-32.377 52.573 1.943 25.581 22.705 46.303 48.291 48.204 9.883.736 19.697-1.297 28.383-5.879 4.748-2.501 10.194-2.503 14.938.001a52.331 52.331 0 0024.435 6.025c1.312 0 2.631-.049 3.947-.146 25.588-1.9 46.349-22.623 48.293-48.204 1.743-22.958-11.751-44.093-32.376-52.574zm8.065 50.726c-1.037 13.658-12.122 24.722-25.786 25.737-5.313.402-10.572-.686-15.203-3.131a40.368 40.368 0 00-37.684 0c-4.631 2.443-9.879 3.53-15.204 3.131-13.663-1.014-24.749-12.078-25.785-25.737-1.065-14.023 8.452-26.77 22.135-29.652a12.193 12.193 0 009.677-12.18l-.02-.617c0-15.461 12.577-28.038 28.038-28.038s28.038 12.577 28.038 27.994l-.019.661a12.188 12.188 0 009.677 12.18c13.685 2.882 23.201 15.629 22.136 29.652zm-59.831-119.248c21.847 0 39.619-17.772 39.619-39.619s-17.772-39.619-39.619-39.619-39.619 17.773-39.619 39.619 17.774 39.619 39.619 39.619zm0-54.857c8.403 0 15.238 6.835 15.238 15.238s-6.835 15.238-15.238 15.238c-8.403 0-15.238-6.835-15.238-15.238s6.836-15.238 15.238-15.238zm-45.714 62.375c0-21.847-17.773-39.619-39.619-39.619s-39.619 17.773-39.619 39.619 17.772 39.619 39.619 39.619 39.619-17.773 39.619-39.619zm-39.619 15.238c-8.403 0-15.238-6.835-15.238-15.238s6.835-15.238 15.238-15.238 15.238 6.835 15.238 15.238-6.836 15.238-15.238 15.238zm170.666-54.858c-21.847 0-39.619 17.773-39.619 39.619s17.774 39.619 39.619 39.619c21.847 0 39.619-17.772 39.619-39.619s-17.772-39.619-39.619-39.619zm0 54.858c-8.403 0-15.238-6.835-15.238-15.238s6.836-15.238 15.238-15.238c8.403 0 15.238 6.835 15.238 15.238s-6.835 15.238-15.238 15.238zM210.717 427.794h-2.96c-6.732 0-12.19 5.459-12.19 12.19 0 6.732 5.459 12.19 12.19 12.19h2.96c6.732 0 12.19-5.459 12.19-12.19.001-6.731-5.457-12.19-12.19-12.19z" data-original="#000000" class="active-path" data-old_color="#f1cdb3" fill="#f1cdb3"/></svg>