<svg xmlns="http://www.w3.org/2000/svg" xmlns:xlink="http://www.w3.org/1999/xlink" version="1.1" id="Capa_1" x="0" y="0" viewBox="0 0 427.922 427.922" xml:space="preserve" width="512" height="512"><path d="M427.345 139.789l-26.06-62.542a7.498 7.498 0 00-5.041-4.375l-31.323-8.121c-91.706-23.776-210.218-23.775-301.92 0l-31.324 8.121a7.498 7.498 0 00-5.041 4.375L.577 139.789a7.5 7.5 0 00-.141 5.407l10.423 29.186a7.498 7.498 0 008.534 4.832l99.025-19.805a7.502 7.502 0 005.925-6.105l8.575-50.781c47.199-11.86 114.886-11.86 162.083 0l8.576 50.782a7.5 7.5 0 005.925 6.105l99.024 19.805a7.504 7.504 0 008.535-4.832l10.424-29.186a7.508 7.508 0 00-.14-5.408zM22.807 163.235l-5.35-14.981 95.913-20.047-2.956 17.507-87.607 17.521zm101.527-73.962a7.497 7.497 0 00-5.4 5.981l-2.882 17.068-96.155 20.098 19.152-45.963 27.716-7.186c89.417-23.182 204.972-23.183 294.393 0l27.716 7.186 19.152 45.963-96.155-20.098-2.882-17.068a7.5 7.5 0 00-5.4-5.981c-51.098-14.101-128.159-14.101-179.255 0zm280.78 73.962l-87.605-17.521-2.957-17.507 95.913 20.047-5.351 14.981z" data-original="#000000" class="active-path" data-old_color="#000000" fill="#292929"/><path d="M356.139 183.878a7.501 7.501 0 00-5.755-5.709l-51.079-10.918-6.431-41.886a7.5 7.5 0 00-7.413-6.362h-20v-9.82c0-4.142-3.357-7.5-7.5-7.5s-7.5 3.358-7.5 7.5v9.82h-73v-9.82c0-4.142-3.357-7.5-7.5-7.5s-7.5 3.358-7.5 7.5v9.82h-20a7.5 7.5 0 00-7.413 6.362l-6.432 41.886-51.078 10.918a7.501 7.501 0 00-5.755 5.709L37.1 340.159a7.533 7.533 0 00-.178 1.625v31.719a7.5 7.5 0 007.5 7.5H383.5a7.5 7.5 0 007.5-7.5v-31.719c0-.546-.06-1.091-.178-1.625l-34.683-156.281zM85.384 191.83l51.428-10.993a7.5 7.5 0 005.846-6.196l6.24-40.638h130.127l6.239 40.638a7.5 7.5 0 005.846 6.196l51.429 10.993 31.615 142.454H53.769L85.384 191.83zM126.2 349.284l-9.661 16.719h-11.401l9.661-16.719H126.2zm17.325 0h163.21l-9.661 16.719h-163.21l9.661-16.719zm-91.603 0h45.552l-9.661 16.719H51.922v-16.719zm262.477 16.719l9.661-16.719H376v16.719h-61.601z" data-original="#000000" class="active-path" data-old_color="#000000" fill="#292929"/><path d="M213.961 320.038c44.388 0 80.5-36.112 80.5-80.5s-36.112-80.5-80.5-80.5-80.5 36.112-80.5 80.5 36.112 80.5 80.5 80.5zm0-146c36.117 0 65.5 29.383 65.5 65.5s-29.383 65.5-65.5 65.5-65.5-29.383-65.5-65.5 29.383-65.5 65.5-65.5z" data-original="#000000" class="active-path" data-old_color="#000000" fill="#292929"/><path d="M213.961 268.091c15.744 0 28.554-12.809 28.554-28.554s-12.81-28.554-28.554-28.554c-15.745 0-28.555 12.809-28.555 28.554s12.81 28.554 28.555 28.554zm0-42.108c7.474 0 13.554 6.08 13.554 13.554s-6.08 13.554-13.554 13.554-13.555-6.08-13.555-13.554c0-7.473 6.081-13.554 13.555-13.554z" data-original="#000000" class="active-path" data-old_color="#000000" fill="#292929"/></svg>