<?xml version="1.0"?><svg viewBox="0 0 512 512" xmlns="http://www.w3.org/2000/svg" xmlns:xlink="http://www.w3.org/1999/xlink"><style>:root>svg{display:none}:root>svg:target{display:block}</style><svg viewBox="0 0 512 512" id="ambulance" xmlns="http://www.w3.org/2000/svg"><path d="M469.772 108.472h-59.929v-1.724c0-31-25.22-56.22-56.22-56.22s-56.22 25.22-56.22 56.22v1.724h-70.381c-23.174 0-42.027 18.854-42.027 42.027v47.483h-63.029c-15.036 0-28.401 9.005-34.048 22.941-.082.204-.158.411-.228.62L51.329 331.682c-.33.196-.751.428-1.275.69l-.006.002c-2.079 1.038-5.962 2.618-12.654 4.253A48.648 48.648 0 00.201 384.004v52.039c0 17.424 14.175 31.6 31.599 31.6l44.58.001C81.087 492.853 103.24 512 129.794 512c26.553 0 48.706-19.147 53.414-44.355l157.223.003c4.708 25.207 26.86 44.352 53.413 44.352 26.552 0 48.704-19.144 53.413-44.351l28.311.001c21.671 0 36.231-14.561 36.231-36.231V171.35c0-56.751-29.391-62.878-42.027-62.878zm-152.369-1.724c0-19.972 16.248-36.22 36.22-36.22 19.972 0 36.22 16.248 36.22 36.22v1.724h-72.44v-1.724zM106.567 228.164a16.665 16.665 0 0115.398-10.182h63.029v113.339H72.51l34.057-103.157zM129.794 492c-18.941 0-34.351-15.409-34.351-34.351 0-.234.013-.465.018-.699.007-.357.009-.715.027-1.07.003-.056.01-.111.013-.167 1.008-18.043 16.004-32.415 34.293-32.415 16.55 0 30.404 11.767 33.637 27.373l.014.06c.109.529.203 1.063.287 1.601l.016.089c.06.391.104.786.15 1.181.021.18.05.357.068.537.031.308.048.621.071.931.02.271.048.539.062.811.014.28.014.564.021.846.008.307.023.612.023.921.002 18.943-15.408 34.352-34.349 34.352zm264.05 0c-18.941 0-34.351-15.409-34.351-34.351 0-.447.017-.891.034-1.334.005-.143.004-.289.011-.431.017-.33.049-.655.075-.982.02-.253.032-.509.058-.761.011-.107.029-.212.04-.318.116-1.044.273-2.076.481-3.089.006-.03.014-.059.021-.089 3.243-15.593 17.089-27.346 33.631-27.346 4.735 0 9.25.963 13.358 2.704 12.325 5.222 20.992 17.441 20.992 31.647 0 18.941-15.409 34.35-34.35 34.35zm81.724-44.351l-28.295-.001c-.033-.177-.076-.351-.111-.528a59.057 59.057 0 00-.813-3.502 54.676 54.676 0 00-.431-1.514c-.094-.312-.186-.625-.284-.935a51.983 51.983 0 00-.529-1.56c-.098-.277-.191-.557-.294-.832a51.574 51.574 0 00-.702-1.776c-.077-.186-.147-.376-.226-.561a55.041 55.041 0 00-1.044-2.306c-.046-.095-.096-.186-.142-.28a55.457 55.457 0 00-.996-1.942c-.127-.235-.262-.464-.392-.697a52.323 52.323 0 00-.847-1.471c-.158-.263-.322-.521-.485-.782a48.422 48.422 0 00-1.393-2.123 55.771 55.771 0 00-1.47-2.031 54.682 54.682 0 00-.964-1.226c-.195-.241-.387-.483-.586-.721a56.47 56.47 0 00-1.087-1.255c-.182-.204-.359-.413-.544-.614a52.78 52.78 0 00-1.405-1.473c-.103-.104-.201-.213-.305-.316a54.505 54.505 0 00-1.808-1.724c-.131-.12-.268-.233-.401-.352-.482-.431-.97-.858-1.468-1.272-.218-.182-.443-.356-.664-.534a58.86 58.86 0 00-1.279-1.006c-.254-.192-.511-.379-.768-.566a52.4 52.4 0 00-3.349-2.263c-.28-.175-.561-.348-.845-.518-.443-.265-.891-.52-1.342-.772-.277-.155-.553-.313-.833-.463-.49-.263-.987-.514-1.486-.762-.248-.124-.493-.253-.743-.372a53.403 53.403 0 00-1.979-.896c-.102-.044-.202-.093-.305-.137a54.067 54.067 0 00-2.344-.926c-.225-.083-.454-.156-.681-.236-.566-.2-1.133-.397-1.707-.579-.301-.095-.605-.181-.908-.271-.509-.151-1.019-.3-1.534-.437-.33-.088-.662-.168-.995-.25a53.374 53.374 0 00-2.535-.559 53.784 53.784 0 00-1.514-.271c-.347-.057-.694-.115-1.043-.165a54.588 54.588 0 00-1.581-.201c-.335-.039-.669-.081-1.006-.113a56.24 56.24 0 00-1.757-.134c-.287-.018-.571-.044-.859-.058a55.294 55.294 0 00-2.646-.067c-.887 0-1.769.025-2.646.067-.288.014-.573.04-.86.058-.587.038-1.173.078-1.755.134-.338.033-.672.075-1.008.114-.528.061-1.055.125-1.578.201-.35.051-.699.108-1.047.166a58.021 58.021 0 00-2.552.483 56.46 56.46 0 00-1.489.345c-.336.082-.671.164-1.004.252-.51.135-1.015.282-1.519.432-.308.092-.618.179-.924.276a53.03 53.03 0 00-1.673.567c-.238.084-.479.161-.716.249-.786.29-1.564.596-2.332.921-.127.054-.251.114-.378.169-.641.277-1.277.562-1.905.862-.265.127-.524.263-.787.394-.482.241-.964.483-1.438.737-.293.157-.582.322-.872.485a57.57 57.57 0 00-1.3.748 58.83 58.83 0 00-2.976 1.912 53.27 53.27 0 00-1.201.855c-.273.199-.547.397-.816.601-.411.312-.814.633-1.216.956-.242.195-.487.385-.726.584-.462.385-.914.782-1.363 1.181-.167.148-.338.291-.503.441a53.917 53.917 0 00-1.782 1.699c-.147.146-.286.3-.432.448-.431.44-.859.883-1.276 1.338-.208.228-.409.462-.613.693-.343.387-.684.775-1.016 1.172-.216.259-.426.522-.637.785-.308.382-.612.766-.91 1.156a56.863 56.863 0 00-2.053 2.885c-.273.41-.537.826-.798 1.244-.179.286-.36.571-.533.86-.27.449-.528.905-.784 1.363-.15.267-.305.531-.451.802-.308.57-.601 1.15-.888 1.732-.081.164-.168.323-.247.488a54.484 54.484 0 00-1.027 2.267c-.099.233-.188.471-.284.706-.221.539-.439 1.08-.643 1.628-.114.306-.217.616-.326.923a56.03 56.03 0 00-.497 1.465c-.107.334-.206.672-.307 1.009a53.415 53.415 0 00-.677 2.483c-.119.481-.23.965-.336 1.452-.077.353-.153.706-.223 1.061-.033.168-.074.333-.105.501l-157.194-.003c-.033-.173-.074-.344-.108-.517-.067-.342-.141-.681-.214-1.02a53.02 53.02 0 00-1.025-3.978c-.097-.326-.194-.652-.297-.976a53.854 53.854 0 00-.508-1.499c-.105-.298-.206-.598-.316-.894a50.448 50.448 0 00-.655-1.657c-.092-.226-.178-.456-.274-.68a53.492 53.492 0 00-1.03-2.273c-.073-.151-.153-.297-.227-.447a51.951 51.951 0 00-.91-1.774c-.142-.264-.294-.523-.441-.784-.26-.463-.521-.925-.794-1.379-.172-.287-.351-.568-.528-.851a54.313 54.313 0 00-.803-1.252 57.932 57.932 0 00-2.052-2.882c-.297-.39-.601-.774-.909-1.155-.212-.263-.423-.528-.639-.787a59.188 59.188 0 00-1.012-1.168c-.206-.232-.408-.468-.617-.697-.412-.45-.836-.889-1.263-1.325-.15-.153-.293-.311-.445-.461a53.732 53.732 0 00-1.779-1.696c-.168-.154-.344-.299-.514-.451a54.003 54.003 0 00-1.352-1.171c-.242-.201-.49-.394-.735-.591-.398-.32-.798-.639-1.206-.948-.271-.206-.547-.405-.822-.606a56.11 56.11 0 00-1.195-.851 57.022 57.022 0 00-2.095-1.371 50.085 50.085 0 00-.887-.544 51.488 51.488 0 00-1.292-.744c-.292-.164-.583-.33-.879-.488a54.782 54.782 0 00-1.427-.732c-.266-.133-.529-.271-.798-.4a56.705 56.705 0 00-1.878-.851c-.135-.059-.267-.123-.403-.181a54.674 54.674 0 00-2.329-.92c-.241-.089-.486-.167-.729-.253a54.865 54.865 0 00-1.66-.563c-.308-.098-.621-.186-.932-.278a55.462 55.462 0 00-1.511-.43c-.335-.089-.672-.171-1.009-.253a50.845 50.845 0 00-4.038-.828c-.348-.057-.696-.115-1.047-.166a54.897 54.897 0 00-1.579-.201c-.335-.039-.669-.081-1.006-.114a56.474 56.474 0 00-1.757-.134c-.287-.018-.571-.044-.859-.058a55.26 55.26 0 00-2.646-.067c-.887 0-1.768.025-2.646.067-.288.014-.573.04-.86.058-.587.038-1.173.078-1.755.134-.338.033-.673.075-1.009.114a54.69 54.69 0 00-1.576.201c-.352.051-.701.109-1.05.166a53.075 53.075 0 00-2.551.483c-.496.107-.989.222-1.481.343-.339.083-.679.166-1.015.255a54.66 54.66 0 00-1.5.427c-.314.093-.63.183-.942.281-.55.174-1.094.364-1.637.555-.251.088-.504.169-.753.261-.782.289-1.556.593-2.32.916-.155.066-.306.139-.46.206-.611.265-1.219.537-1.819.824-.28.134-.554.278-.832.417a53.61 53.61 0 00-1.392.714c-.304.163-.603.334-.904.503-.424.238-.847.478-1.264.728a57.07 57.07 0 00-2.111 1.328c-.3.198-.598.398-.894.602-.392.27-.778.547-1.163.827-.285.208-.572.415-.853.629-.393.299-.779.606-1.164.915-.259.208-.521.411-.775.624-.433.36-.855.732-1.276 1.105-.196.173-.396.341-.59.517a55.838 55.838 0 00-1.761 1.679c-.178.178-.348.364-.524.544-.399.409-.796.819-1.182 1.24-.225.245-.441.498-.661.747-.326.369-.651.738-.966 1.116-.228.272-.45.55-.672.827a55.37 55.37 0 00-.873 1.111 55.198 55.198 0 00-1.463 2.016 55.04 55.04 0 00-.614.902c-.263.396-.517.797-.77 1.199-.188.3-.377.598-.559.902-.259.431-.506.869-.753 1.307-.16.285-.325.567-.481.855a54.49 54.49 0 00-.837 1.632c-.098.196-.202.388-.297.586-.356.74-.695 1.489-1.018 2.247-.11.258-.208.521-.314.781-.21.515-.419 1.03-.613 1.552-.119.319-.227.642-.34.964-.166.473-.33.946-.483 1.424-.11.343-.212.689-.315 1.035-.139.467-.274.935-.401 1.407a51.085 51.085 0 00-.605 2.498c-.078.36-.156.719-.227 1.082-.032.164-.072.326-.103.49H31.8c-6.396 0-11.599-5.203-11.599-11.6v-52.039a28.694 28.694 0 0121.938-27.947c5.699-1.393 10.594-2.981 14.591-4.735h363.192c5.522 0 10-4.477 10-10 0-5.522-4.478-10-10-10H204.995V150.499c0-12.145 9.882-22.027 22.027-22.027h242.749c19.166 0 22.027 26.864 22.027 42.878v260.068h.001c0 14.123-10.17 16.231-16.231 16.231z" data-original="#000000" class="aactive-path" data-old_color="#f1cdb3" fill="#f1cdb3"/><path d="M430.798 211.753c.001-13.128-9.22-24.136-21.523-26.907.066-.691.118-1.385.138-2.088v-.001c.229-8.137-2.811-15.872-8.558-21.783-5.845-6.011-14.008-9.458-22.398-9.458-10.138 0-19.167 4.933-24.82 12.529-5.649-7.596-14.686-12.529-24.847-12.529-8.315 0-16.422 3.402-22.241 9.336-5.779 5.892-8.875 13.641-8.717 21.817.014.733.064 1.458.129 2.179-12.298 2.775-21.513 13.78-21.513 26.905 0 11.107 6.602 20.695 16.084 25.064-6.68 8.266-10.578 18.726-10.578 29.785 0 26.116 21.247 47.363 47.363 47.363 8.602 0 17-2.351 24.306-6.721a47.37 47.37 0 0024.306 6.721c26.116 0 47.363-21.247 47.363-47.363 0-11.06-3.898-21.519-10.578-29.785 9.483-4.369 16.084-13.957 16.084-25.064zm-52.341-40.236c3.021 0 5.958 1.239 8.059 3.399 1.949 2.005 2.98 4.589 2.905 7.278-.173 6.131-5.143 11.174-11.08 11.242a11.14 11.14 0 01-4.611-1.004c-.179-.083-.355-.172-.535-.253a10.409 10.409 0 01-2.476-1.819c-2.089-2.073-3.233-4.858-3.221-7.844.024-6.065 4.941-10.999 10.959-10.999zm-57.631 3.34a11.07 11.07 0 017.963-3.341c6.036 0 10.952 4.922 10.959 10.971a11.017 11.017 0 01-3.303 7.922 10.575 10.575 0 01-2.409 1.777c-.327.148-.646.307-.969.462a10.428 10.428 0 01-4.113.789c-6.019-.099-11.01-5.102-11.127-11.153-.054-2.764 1.012-5.4 2.999-7.427zm-24.378 36.897c-.001-4.184 3.403-7.587 7.585-7.587 4.184 0 7.587 3.403 7.587 7.587 0 .859-.15 1.681-.414 2.452-.25.503-.491 1.011-.723 1.524-1.338 2.162-3.725 3.61-6.449 3.61-4.183 0-7.586-3.403-7.586-7.586zm81.481 82.213a27.353 27.353 0 01-17.796-6.59 9.974 9.974 0 00-6.51-2.409 9.981 9.981 0 00-6.51 2.409 27.353 27.353 0 01-17.796 6.59c-15.088 0-27.363-12.275-27.363-27.363 0-11.437 7.211-21.766 17.943-25.701a9.999 9.999 0 006.506-8.373 27.423 27.423 0 012.06-7.984c.356-.677.69-1.367.99-2.075a27.25 27.25 0 0111.853-11.581c.435-.191.865-.392 1.291-.604a27.444 27.444 0 0111.026-2.296c3.909 0 7.632.815 11.005 2.287.426.211.856.411 1.291.602a27.248 27.248 0 0111.874 11.592c.3.708.634 1.398.99 2.075a27.423 27.423 0 012.06 7.984 9.999 9.999 0 006.506 8.373c10.732 3.936 17.943 14.264 17.943 25.701 0 15.087-12.275 27.363-27.363 27.363zm25.284-74.627c-2.724 0-5.111-1.448-6.449-3.61a48.281 48.281 0 00-.723-1.524 7.542 7.542 0 01-.414-2.452c0-4.184 3.403-7.587 7.587-7.587 4.183 0 7.586 3.403 7.586 7.587-.001 4.182-3.404 7.586-7.587 7.586zM469.899 339.42a9.997 9.997 0 00-.569-1.87 9.937 9.937 0 00-.92-1.73 9.57 9.57 0 00-1.24-1.52 9.57 9.57 0 00-1.52-1.24 10.199 10.199 0 00-3.6-1.49 9.847 9.847 0 00-3.9 0c-.64.131-1.27.32-1.88.57-.6.25-1.18.561-1.72.92-.55.36-1.06.78-1.52 1.24-.461.46-.881.97-1.25 1.52-.36.54-.671 1.12-.91 1.73-.25.6-.45 1.23-.57 1.87-.13.64-.2 1.3-.2 1.95 0 .649.07 1.31.2 1.96.12.63.32 1.26.57 1.87.25.6.56 1.18.92 1.72.359.55.779 1.06 1.24 1.52.46.46.97.88 1.52 1.25.54.36 1.12.66 1.72.91.61.25 1.24.45 1.88.57.641.13 1.301.2 1.95.2.65 0 1.311-.07 1.95-.2.64-.12 1.27-.32 1.87-.57.61-.25 1.19-.55 1.73-.91.551-.37 1.061-.79 1.52-1.25.46-.46.88-.97 1.24-1.52.359-.54.67-1.12.92-1.72.25-.61.439-1.24.569-1.87.131-.65.2-1.311.2-1.96 0-.65-.069-1.31-.2-1.95zM353.623 0c-5.522 0-10 4.477-10 10v16.74c0 5.523 4.478 10 10 10 5.523 0 10-4.478 10-10V10c0-5.523-4.477-10-10-10zM311.494 38.883l-13.958-10.959a10 10 0 00-14.041 1.69c-3.41 4.344-2.653 10.63 1.69 14.04l13.958 10.959a9.958 9.958 0 006.169 2.135 9.986 9.986 0 007.872-3.824c3.411-4.345 2.654-10.631-1.69-14.041zM423.751 29.613c-3.41-4.344-9.695-5.101-14.041-1.69l-13.958 10.959c-4.344 3.41-5.101 9.696-1.69 14.041a9.976 9.976 0 007.872 3.825 9.96 9.96 0 006.169-2.135l13.958-10.959c4.344-3.41 5.101-9.696 1.69-14.041z" data-original="#000000" class="aactive-path" data-old_color="#f1cdb3" fill="#f1cdb3"/></svg><svg viewBox="0 0 512 512" id="ball" xmlns="http://www.w3.org/2000/svg"><path d="M437.019 74.98C388.667 26.63 324.38 0 256 0S123.333 26.63 74.981 74.98C26.628 123.333 0 187.619 0 256s26.628 132.667 74.981 181.02C123.333 485.37 187.62 512 256 512s132.667-26.63 181.019-74.98C485.372 388.667 512 324.381 512 256s-26.628-132.667-74.981-181.02zM90.721 421.278c-40.337-40.337-64.104-92.825-67.907-149.208l.003.006c6.114.209 12.36.782 18.674 1.721 45.254 6.722 90.795 31.043 128.232 68.48 37.437 37.438 61.757 82.978 68.48 128.233a165.132 165.132 0 011.715 18.563c-54.387-3.718-107.713-26.312-149.197-67.795zm171.476 68.264a187.112 187.112 0 00-1.976-22.304c-7.42-49.942-33.969-99.912-74.759-140.702-40.79-40.79-90.759-67.339-140.703-74.759a186.959 186.959 0 00-22.416-1.979c.194-7.475.738-14.89 1.622-22.229 7.932.26 15.992.99 24.066 2.189 54.632 8.115 109.029 36.895 153.172 81.037 44.141 44.14 72.921 98.538 81.037 153.17a211.588 211.588 0 012.182 23.939 234.837 234.837 0 01-22.225 1.638zm159.081-68.264c-32.656 32.654-72.648 53.605-114.72 62.859a235.146 235.146 0 00-2.296-23.442c-8.813-59.323-39.823-118.147-87.316-165.641-47.495-47.494-106.32-78.502-165.641-87.315a234.694 234.694 0 00-23.532-2.302l-.061.05c9.459-43.151 31.023-82.779 63.01-114.766 31.239-31.239 69.192-51.765 109.256-61.588a233.616 233.616 0 002.453 27.479c8.812 59.321 39.821 118.146 87.315 165.641 47.494 47.494 106.319 78.502 165.643 87.315a233.022 233.022 0 0027.56 2.456l.1-.166c-10.027 41.076-31.109 78.759-61.771 109.42zm66.036-131.435c-9.393-.094-18.993-.859-28.654-2.294-54.634-8.116-109.032-36.895-153.173-81.037s-72.921-98.539-81.036-153.17c-1.429-9.619-2.196-19.177-2.294-28.525a235.324 235.324 0 0122.281-2.157c-.017 8.935.651 18.108 2.032 27.411 7.42 49.943 33.97 99.913 74.76 140.702 4.346 4.345 11.394 4.345 15.741 0 4.346-4.346 4.346-11.394 0-15.742-37.437-37.437-61.757-82.977-68.48-128.232-1.223-8.237-1.825-16.332-1.806-24.181 56.245 2.55 111.74 25.247 154.595 68.104 41.62 41.62 65.602 96.175 68.212 154.597-7.899.017-16.016-.58-24.29-1.809-6.079-.903-11.743 3.295-12.645 9.375-.904 6.081 3.294 11.741 9.374 12.644 9.194 1.366 18.264 2.05 27.1 2.05.144 0 .285-.008.429-.008a236.447 236.447 0 01-2.146 22.272z" data-original="#000000" class="bactive-path" data-old_color="#f1cdb3" fill="#f1cdb3"/><path d="M393.828 219.947a11.17 11.17 0 00-7.869 3.262 11.164 11.164 0 00-3.261 7.868c0 2.928 1.18 5.799 3.261 7.869 2.07 2.071 4.942 3.261 7.869 3.261s5.799-1.19 7.869-3.261a11.215 11.215 0 003.261-7.869c0-2.927-1.191-5.799-3.261-7.868a11.17 11.17 0 00-7.869-3.262z" data-original="#000000" class="bactive-path" data-old_color="#f1cdb3" fill="#f1cdb3"/></svg><svg viewBox="0 0 512.001 512.001" id="bowl" xmlns="http://www.w3.org/2000/svg"><path d="M511.873 336.617l-24.401-163.934c-.395-47.603-29.291-91.743-79.442-121.229-41.537-24.419-95.528-37.868-152.029-37.868-56.503 0-110.495 13.449-152.032 37.868-50.15 29.486-79.047 73.626-79.441 121.229L.127 336.617c-.084.567-.127 1.14-.127 1.714 0 48.204 32.124 92.843 88.136 122.471 45.856 24.255 105.471 37.613 167.865 37.613 62.392 0 122.008-13.358 167.864-37.613 56.011-29.628 88.136-74.267 88.136-122.471a11.699 11.699 0 00-.128-1.714zM115.77 71.527c38.014-22.348 87.815-34.656 140.231-34.656 52.415 0 102.216 12.308 140.229 34.656 43.2 25.398 67.978 62.629 67.978 102.144s-24.777 76.745-67.977 102.144c-38.014 22.348-87.815 34.656-140.23 34.656s-102.217-12.308-140.23-34.656c-43.2-25.398-67.978-62.629-67.978-102.144S72.57 96.926 115.77 71.527zm297.207 368.692c-42.562 22.513-98.31 34.911-156.976 34.911-58.667 0-114.416-12.398-156.977-34.911-47.792-25.281-75.348-62.073-75.735-101.056l16.029-107.685c13.352 24.977 35.373 47.192 64.653 64.407 41.537 24.419 95.528 37.868 152.03 37.868 56.501 0 110.494-13.449 152.03-37.868 29.28-17.215 51.301-39.431 64.653-64.407l16.029 107.685c-.388 38.984-27.944 75.776-75.736 101.056z" data-original="#000000" class="cactive-path" data-old_color="#f1cdb3" fill="#f1cdb3"/><path d="M256.001 287.18c79.815 0 150.253-30.883 175.271-76.842 6.403-11.747 9.651-24.085 9.651-36.668 0-31.507-20.064-60.654-56.495-82.071C349.939 71.325 304.33 60.16 256.001 60.16S162.062 71.326 127.574 91.6c-36.432 21.417-56.496 50.563-56.496 82.071 0 12.584 3.247 24.921 9.648 36.662 25.022 45.964 95.459 76.847 175.275 76.847zm0-23.284c-66.948 0-127.76-24.053-151.419-59.158 23.668-35.085 84.489-59.114 151.419-59.114s127.752 24.029 151.42 59.115c-23.655 35.104-84.47 59.157-151.42 59.157zm-161.64-90.225c.001-22.917 15.986-44.935 45.012-61.999C170.34 93.469 211.758 83.444 256 83.444c44.241 0 85.661 10.025 116.627 28.229 29.026 17.063 45.012 39.08 45.012 61.998 0 2.042-.138 4.079-.393 6.111-32.109-35.04-93.271-57.442-161.246-57.442s-129.136 22.403-161.245 57.442a49.045 49.045 0 01-.394-6.111zM256 352.958a11.645 11.645 0 00-8.422 3.604c-7.584 7.945-32.325 35.363-32.325 54.606 0 22.468 18.279 40.747 40.747 40.747s40.747-18.279 40.747-40.747c0-19.243-24.742-46.661-32.325-54.606a11.645 11.645 0 00-8.422-3.604zm0 75.674c-9.629 0-17.463-7.834-17.463-17.463 0-5.169 8.126-17.658 17.463-28.993 9.338 11.337 17.463 23.824 17.463 28.993 0 9.629-7.834 17.463-17.463 17.463z" data-original="#000000" class="cactive-path" data-old_color="#f1cdb3" fill="#f1cdb3"/><path d="M203.813 200.447h-3.589c-6.43 0-11.642 5.212-11.642 11.642s5.212 11.642 11.642 11.642h3.589c6.43 0 11.642-5.212 11.642-11.642s-5.212-11.642-11.642-11.642zM341.965 200.447h-83.047c-6.43 0-11.642 5.212-11.642 11.642s5.212 11.642 11.642 11.642h83.047c6.43 0 11.642-5.212 11.642-11.642s-5.212-11.642-11.642-11.642z" data-original="#000000" class="cactive-path" data-old_color="#f1cdb3" fill="#f1cdb3"/></svg><svg viewBox="0 0 212.982 212.982" id="cancel" xmlns="http://www.w3.org/2000/svg"><path d="M131.804 106.491l75.936-75.936c6.99-6.99 6.99-18.323 0-25.312-6.99-6.99-18.322-6.99-25.312 0L106.491 81.18 30.554 5.242c-6.99-6.99-18.322-6.99-25.312 0-6.989 6.99-6.989 18.323 0 25.312l75.937 75.936-75.937 75.937c-6.989 6.99-6.989 18.323 0 25.312 6.99 6.99 18.322 6.99 25.312 0l75.937-75.937 75.937 75.937c6.989 6.99 18.322 6.99 25.312 0 6.99-6.99 6.99-18.322 0-25.312l-75.936-75.936z" data-original="#000000" class="dactive-path" data-old_color="fill-rule: evenodd clip-rule: evenodd;#292929" fill="#292929" fill-rule="evenodd" clip-rule="evenodd"/></svg><svg viewBox="0 0 512 512" id="cardiogram" xmlns="http://www.w3.org/2000/svg"><path d="M511.765 180.695c-1.898-35.461-16.915-68.76-42.284-93.765-25.706-25.337-59.251-39.291-94.458-39.291-55.689 0-100.817 46.301-118.822 67.877C238.783 93.795 194.949 47.64 136.98 47.64c-35.205 0-68.748 13.954-94.454 39.291C17.157 111.936 2.141 145.236.243 180.697c-1.887 35.369 7.146 66.127 29.291 99.733 20.149 30.573 73.033 79.261 112.197 111.666 32.619 26.989 90.87 72.265 114.508 72.265 24.017 0 82.015-45.174 114.451-72.102 38.863-32.265 91.461-80.914 111.8-111.838 14.902-22.676 31.698-54.502 29.275-99.726zM478.3 247.572h-21.129a54.164 54.164 0 002.474-16.222c0-13.558-5.103-26.331-13.75-36.088a30.735 30.735 0 0011.217-7.158c5.849-5.838 9.07-13.604 9.07-21.868 0-15.794-11.924-28.849-27.241-30.656a34.92 34.92 0 00.323-4.68c0-19.233-15.648-34.881-34.881-34.881-11.525 0-21.758 5.622-28.113 14.264-6.361-8.573-16.554-14.141-28.025-14.141-19.234 0-34.881 15.647-34.881 34.882 0 1.556.113 3.086.311 4.589-15.194 1.921-26.985 14.917-26.985 30.623 0 8.248 3.211 16.003 9.042 21.836a30.766 30.766 0 0011.247 7.187c-8.649 9.758-13.753 22.532-13.753 36.091 0 23.113 14.508 42.89 34.891 50.736l-16.777 42.416-54.883-103.686a9.997 9.997 0 00-8.813-5.321h-.025a10 10 0 00-8.815 5.278l-43.604 81.4-8.954-22.887c-2.012-5.143-7.813-7.679-12.956-5.669-5.143 2.012-7.682 7.813-5.669 12.956l16.849 43.066a9.998 9.998 0 0018.128 1.078l44.969-83.948 56.252 106.271a10.002 10.002 0 0018.137-1.002L348.2 285.69a54.346 54.346 0 0028.236-8.291 54.345 54.345 0 0028.855 8.302c16.067 0 30.522-7.013 40.481-18.132h21.208c-.399.62-.796 1.24-1.205 1.862-15.496 23.568-58.843 66.744-107.861 107.439-59.643 49.517-93.482 67.49-101.675 67.49-8.026 0-41.748-18.022-101.758-67.674-36.965-30.585-70.621-62.415-91.655-86.258h31.927a10 10 0 009.256-6.215l32.044-78.353 8.733 22.323c2.012 5.143 7.814 7.684 12.956 5.669 5.143-2.012 7.681-7.813 5.669-12.956l-17.84-45.6a9.999 9.999 0 00-9.236-6.356h-.077a10 10 0 00-9.255 6.215l-38.964 95.273H46.915c-.226-.334-.466-.678-.681-1.004-19.639-29.805-27.664-56.84-26.019-87.661 3.367-62.926 55.747-114.122 116.764-114.122 63.382 0 110.245 69.194 110.705 69.885a10 10 0 008.196 4.469c3.284.061 6.413-1.544 8.314-4.244.493-.701 50.036-70.109 110.829-70.109 61.02 0 113.404 51.195 116.771 114.125 1.236 23.103-2.987 44.111-13.494 65.805zm-142.541-48.491a9.997 9.997 0 006.506-8.373 34.414 34.414 0 013.002-10.974l.096-.198a34.203 34.203 0 0116.186-16.274c.589-.244 1.173-.5 1.745-.775a34.48 34.48 0 0113.144-2.591c4.792 0 9.36.979 13.516 2.746.334.152.668.306 1.007.448a34.203 34.203 0 0116.486 16.308c.067.141.135.282.205.422a34.425 34.425 0 012.961 10.888 9.997 9.997 0 006.506 8.373c13.475 4.94 22.528 17.908 22.528 32.268 0 18.942-15.411 34.353-34.354 34.353a34.342 34.342 0 01-22.344-8.273c-1.873-1.607-4.192-2.41-6.511-2.41s-4.638.804-6.511 2.41a34.333 34.333 0 01-22.342 8.273c-18.943 0-34.354-15.411-34.354-34.353.001-14.359 9.053-27.327 22.528-32.268zm-25.878-25.151a10.815 10.815 0 01-3.187-7.696c0-5.997 4.879-10.877 10.877-10.877 2.947 0 5.712 1.152 7.785 3.242 2.018 2.036 3.117 4.718 3.093 7.551a11.068 11.068 0 01-.842 4.142c-.187.383-.376.766-.555 1.155-1.871 3.371-5.43 5.661-9.489 5.664h-.01c-2.898 0-5.621-1.13-7.672-3.181zm23.488-42.907c0-8.206 6.676-14.882 14.881-14.882 8.206 0 14.881 6.676 14.881 14.882-.001 5.763-3.3 10.76-8.102 13.231-.524.223-1.047.449-1.562.688-1.626.612-3.38.962-5.217.962-8.206 0-14.881-6.676-14.881-14.881zm56.136-.124c0-8.205 6.675-14.881 14.881-14.881s14.881 6.676 14.881 14.881-6.676 14.881-14.881 14.881c-1.877 0-3.667-.364-5.322-1.001-.359-.163-.724-.315-1.086-.47-5.002-2.4-8.473-7.501-8.473-13.41zm45.842 46.212h-.022c-4.057-.007-7.613-2.287-9.488-5.641-.187-.407-.384-.806-.58-1.207a11.017 11.017 0 01-.828-4.104c-.021-2.841 1.081-5.527 3.104-7.565a10.875 10.875 0 017.774-3.236c5.998 0 10.877 4.879 10.877 10.877 0 2.914-1.136 5.654-3.199 7.712a10.742 10.742 0 01-7.638 3.164z" data-original="#000000" class="eactive-path" data-old_color="#f1cdb3" fill="#f1cdb3"/><path d="M175.226 251.259c-.12-.64-.32-1.27-.57-1.87a10.048 10.048 0 00-2.16-3.25 10.153 10.153 0 00-3.24-2.16c-.61-.25-1.24-.439-1.88-.569a9.81 9.81 0 00-3.9 0 10.096 10.096 0 00-5.12 2.729 10 10 0 00-1.24 1.521 10.122 10.122 0 00-1.69 5.559 10.098 10.098 0 001.69 5.55c.36.54.78 1.061 1.24 1.52.46.46.97.88 1.52 1.24a10.096 10.096 0 003.6 1.489c.64.13 1.3.2 1.95.2 2.63 0 5.21-1.07 7.07-2.93.46-.458.88-.979 1.24-1.519s.67-1.13.92-1.73c.25-.6.45-1.23.57-1.87.13-.64.2-1.3.2-1.95 0-.66-.07-1.309-.2-1.96z" data-original="#000000" class="eactive-path" data-old_color="#f1cdb3" fill="#f1cdb3"/></svg><svg viewBox="0 0 511.999 512" id="cat" xmlns="http://www.w3.org/2000/svg"><path d="M492.069 170.379L261.906 1.931a10 10 0 00-11.813 0L19.931 170.379c-4.456 3.262-5.425 9.519-2.163 13.976l30.083 41.105a9.996 9.996 0 0013.976 2.163l9.078-6.644v281.02c0 5.522 4.478 10 10 10h350.718c5.522 0 10-4.478 10-10V221.366l8.55 6.257a9.997 9.997 0 0013.975-2.163l30.083-41.105c3.263-4.458 2.294-10.714-2.162-13.976zm-70.446 282.618H185.031c-5.522 0-10 4.478-10 10s4.478 10 10 10h236.592V492H90.904V214.23h234.182c5.522 0 10-4.478 10-10s-4.478-10-10-10H107.46L256 85.515l165.623 121.214v246.268zm32.292-247.419l-16.385-11.992-.001-.001L261.906 65.054A9.988 9.988 0 00256 63.123a9.985 9.985 0 00-5.906 1.931L58.084 205.578l-18.271-24.966L256.001 22.391l216.188 158.221-18.274 24.966z" data-original="#000000" class="factive-path" data-old_color="#f1cdb3" fill="#f1cdb3"/><path d="M370.92 202.28c-.13-.641-.33-1.271-.58-1.881-.25-.6-.56-1.18-.92-1.72a9.57 9.57 0 00-1.24-1.52 10.077 10.077 0 00-7.07-2.931c-2.63 0-5.21 1.07-7.069 2.931-.46.46-.88.97-1.24 1.52-.36.54-.67 1.12-.92 1.72-.25.61-.45 1.24-.57 1.881-.13.64-.2 1.3-.2 1.949 0 .65.07 1.311.2 1.95.12.639.32 1.27.57 1.88.25.601.56 1.181.92 1.721.36.55.78 1.059 1.24 1.52.46.46.97.88 1.52 1.24.54.359 1.12.67 1.73.92.6.25 1.229.45 1.87.57.64.13 1.3.199 1.949.199.65 0 1.311-.069 1.95-.199a9.352 9.352 0 001.87-.57c.61-.25 1.19-.561 1.73-.92.55-.36 1.059-.78 1.52-1.24.46-.46.88-.97 1.24-1.52.36-.54.67-1.12.92-1.721.25-.609.45-1.24.58-1.88s.189-1.3.189-1.95c0-.649-.06-1.31-.189-1.949zM158.808 461.041a9.997 9.997 0 00-.569-1.87c-.25-.601-.561-1.19-.921-1.73a9.974 9.974 0 00-1.239-1.52c-.46-.46-.971-.87-1.52-1.24a10.122 10.122 0 00-3.6-1.49 9.898 9.898 0 00-3.91 0c-.63.13-1.26.32-1.87.57-.6.25-1.18.56-1.72.92-.55.36-1.061.78-1.52 1.24-.47.46-.88.98-1.25 1.52a10.096 10.096 0 00-1.489 3.6c-.131.65-.19 1.3-.19 1.95a9.872 9.872 0 00.759 3.829c.25.601.561 1.181.92 1.73.37.54.78 1.05 1.25 1.52.46.461.971.881 1.52 1.24.54.36 1.12.67 1.72.92.61.25 1.24.44 1.87.57.65.13 1.31.2 1.96.2a10.098 10.098 0 005.55-1.69 9.462 9.462 0 001.52-1.24c.46-.47.88-.979 1.239-1.52a10.086 10.086 0 001.69-5.559c0-.65-.07-1.301-.2-1.95zM380.215 260.9c0-8.481-3.326-16.44-9.366-22.409-5.982-5.911-14.162-9.22-22.503-9.148a31.733 31.733 0 00-7.788 1.055 345.573 345.573 0 00-54.091 18.747 132.042 132.042 0 00-30.466-3.544c-5.777 0-11.605.379-17.326 1.127a131.38 131.38 0 00-13.139 2.417 345.527 345.527 0 00-54.082-18.745 13.29 13.29 0 00-.268-.072c-9.842-2.506-19.992-.252-27.846 6.192-7.852 6.442-12.045 15.954-11.506 26.09a343.876 343.876 0 003.067 31.091 347.588 347.588 0 005.135 27.534 108.857 108.857 0 00-6.427 24.601 77.669 77.669 0 00-.738 10.614c0 44.765 39.036 81.185 87.02 81.185h72.223c26.301 0 50.907-10.938 67.51-30.009 15.215-17.477 21.881-39.424 18.77-61.796a109.458 109.458 0 00-2.954-14.209 110.435 110.435 0 00-3.468-10.38 345.817 345.817 0 008.197-58.604c.031-.585.046-1.161.046-1.737zm-20.019.622l-.002.034a325.584 325.584 0 01-8.415 58.186 10.005 10.005 0 00.523 6.23 90.759 90.759 0 013.867 11.016 89.458 89.458 0 012.411 11.597c2.302 16.555-2.686 32.859-14.046 45.908-12.803 14.706-31.91 23.141-52.425 23.141h-72.223c-36.954 0-67.02-27.447-67.02-61.184 0-2.59.185-5.239.548-7.866a89.04 89.04 0 016.279-22.604 9.999 9.999 0 00.527-6.237 327.571 327.571 0 01-5.531-28.91 323.748 323.748 0 01-2.888-29.279c-.198-3.72 1.34-7.209 4.221-9.573 2.11-1.732 4.674-2.64 7.313-2.64.899 0 1.808.105 2.711.32l.199.053a325.112 325.112 0 0154.207 19.074 10.01 10.01 0 006.729.564 111 111 0 0114.088-2.794c4.857-.635 9.813-.957 14.726-.957 9.794 0 19.487 1.262 28.813 3.751 2.238.594 4.614.399 6.722-.56a325.597 325.597 0 0154.404-19.129 11.748 11.748 0 012.607-.322h.13c2.989 0 5.941 1.226 8.115 3.374a11.426 11.426 0 013.425 8.184c.001.207-.004.413-.015.623z" data-original="#000000" class="factive-path" data-old_color="#f1cdb3" fill="#f1cdb3"/><path d="M274.755 371.765c-4.827 0-8.755-3.927-8.755-8.754 0-5.522-4.477-10-10-10s-10 4.478-10 10v.365c0 4.827-3.927 8.755-8.754 8.755-5.523 0-10 4.478-10 10s4.477 10 10 10c7.26 0 13.898-2.707 18.964-7.162a28.626 28.626 0 0018.545 6.796c5.522 0 10-4.478 10-10 0-5.523-4.478-10-10-10zM221.044 325.686l-14.854-6.806a9.985 9.985 0 00-8.33 0l-14.855 6.806c-5.021 2.3-7.227 8.235-4.926 13.256a9.998 9.998 0 0013.256 4.926l10.689-4.897 10.689 4.897c5.018 2.303 10.956.095 13.256-4.926 2.302-5.021.095-10.957-4.925-13.256zM328.995 325.685l-14.854-6.806a9.989 9.989 0 00-8.33 0l-14.854 6.806c-5.021 2.3-7.227 8.235-4.926 13.256 2.301 5.023 8.236 7.23 13.256 4.926l10.689-4.897 10.689 4.897a9.956 9.956 0 004.159.911c3.79 0 7.415-2.166 9.097-5.837 2.301-5.021.096-10.956-4.926-13.256z" data-original="#000000" class="factive-path" data-old_color="#f1cdb3" fill="#f1cdb3"/></svg><svg viewBox="0 0 512 512" id="cat-food" xmlns="http://www.w3.org/2000/svg"><path d="M451.395 217.581L402.286 83.177V12.19c0-6.732-5.459-12.19-12.19-12.19h-268.19c-6.732 0-12.19 5.459-12.19 12.19v70.986L60.605 217.581a144.372 144.372 0 00-8.795 49.699v202.706C51.81 493.152 70.657 512 93.824 512h324.352c23.167 0 42.014-18.848 42.014-42.014V267.28c0-17.006-2.959-33.728-8.795-49.699zm-317.3-193.2h243.81v48.762h-243.81V24.381zM435.81 427.794H263.746c-6.732 0-12.19 5.459-12.19 12.19 0 6.732 5.459 12.19 12.19 12.19H435.81v17.81c0 9.723-7.91 17.634-17.634 17.634H93.824c-9.723 0-17.633-7.91-17.633-17.634V267.28a120.08 120.08 0 017.314-41.332L130.43 97.524h251.14l46.925 128.424a120.085 120.085 0 017.314 41.332v160.514z" data-original="#000000" class="gactive-path" data-old_color="#f1cdb3" fill="#f1cdb3"/><path d="M303.931 288.469c-3.98-24.984-25.678-44.143-51.767-44.143-26.089 0-47.787 19.159-51.767 44.143-20.625 8.481-34.119 29.616-32.377 52.573 1.943 25.581 22.705 46.303 48.291 48.204 9.883.736 19.697-1.297 28.383-5.879 4.748-2.501 10.194-2.503 14.938.001a52.331 52.331 0 0024.435 6.025c1.312 0 2.631-.049 3.947-.146 25.588-1.9 46.349-22.623 48.293-48.204 1.743-22.958-11.751-44.093-32.376-52.574zm8.065 50.726c-1.037 13.658-12.122 24.722-25.786 25.737-5.313.402-10.572-.686-15.203-3.131a40.368 40.368 0 00-37.684 0c-4.631 2.443-9.879 3.53-15.204 3.131-13.663-1.014-24.749-12.078-25.785-25.737-1.065-14.023 8.452-26.77 22.135-29.652a12.193 12.193 0 009.677-12.18l-.02-.617c0-15.461 12.577-28.038 28.038-28.038s28.038 12.577 28.038 27.994l-.019.661a12.188 12.188 0 009.677 12.18c13.685 2.882 23.201 15.629 22.136 29.652zM252.165 219.947c21.847 0 39.619-17.772 39.619-39.619s-17.772-39.619-39.619-39.619-39.619 17.773-39.619 39.619 17.774 39.619 39.619 39.619zm0-54.857c8.403 0 15.238 6.835 15.238 15.238s-6.835 15.238-15.238 15.238c-8.403 0-15.238-6.835-15.238-15.238s6.836-15.238 15.238-15.238zM206.451 227.465c0-21.847-17.773-39.619-39.619-39.619s-39.619 17.773-39.619 39.619 17.772 39.619 39.619 39.619 39.619-17.773 39.619-39.619zm-39.619 15.238c-8.403 0-15.238-6.835-15.238-15.238s6.835-15.238 15.238-15.238 15.238 6.835 15.238 15.238-6.836 15.238-15.238 15.238zM337.498 187.845c-21.847 0-39.619 17.773-39.619 39.619s17.774 39.619 39.619 39.619c21.847 0 39.619-17.772 39.619-39.619s-17.772-39.619-39.619-39.619zm0 54.858c-8.403 0-15.238-6.835-15.238-15.238s6.836-15.238 15.238-15.238c8.403 0 15.238 6.835 15.238 15.238s-6.835 15.238-15.238 15.238zM210.717 427.794h-2.96c-6.732 0-12.19 5.459-12.19 12.19 0 6.732 5.459 12.19 12.19 12.19h2.96c6.732 0 12.19-5.459 12.19-12.19.001-6.731-5.457-12.19-12.19-12.19z" data-original="#000000" class="gactive-path" data-old_color="#f1cdb3" fill="#f1cdb3"/></svg><svg viewBox="0 0 512 512" id="clock" xmlns="http://www.w3.org/2000/svg"><path d="M256 0C114.841 0 0 114.841 0 256s114.841 256 256 256 256-114.841 256-256S397.16 0 256 0zm0 493.289C125.158 493.289 18.711 386.842 18.711 256S125.158 18.711 256 18.711 493.288 125.158 493.288 256 386.842 493.289 256 493.289z" data-original="#000000" class="hactive-path" data-old_color="#f1cdb3" fill="#f1cdb3"/><path d="M256 43.823C138.996 43.823 43.806 139.006 43.806 256S138.997 468.177 256 468.177c116.994 0 212.177-95.183 212.177-212.177S372.994 43.823 256 43.823zm9.35 405.414v-30.744a9.355 9.355 0 00-9.355-9.355 9.355 9.355 0 00-9.355 9.355v30.744c-99.255-4.751-179.143-84.632-183.893-183.879h30.757a9.355 9.355 0 009.355-9.355 9.355 9.355 0 00-9.355-9.355H62.746c4.749-99.248 84.636-179.13 183.893-183.883v30.747a9.354 9.354 0 009.355 9.355 9.355 9.355 0 009.355-9.355V62.763c99.253 4.746 179.139 84.631 183.886 183.883h-30.752a9.355 9.355 0 00-9.355 9.355 9.354 9.354 0 009.355 9.355h30.752c-4.748 99.251-84.634 179.134-183.885 183.881z" data-original="#000000" class="hactive-path" data-old_color="#f1cdb3" fill="#f1cdb3"/><path d="M308.852 246.646H265.35v-75.372a9.354 9.354 0 00-9.355-9.355 9.355 9.355 0 00-9.355 9.355v84.727a9.354 9.354 0 009.355 9.355h52.857a9.356 9.356 0 000-18.71z" data-original="#000000" class="hactive-path" data-old_color="#f1cdb3" fill="#f1cdb3"/><circle cx="396.717" cy="337.254" r="9.355" data-original="#000000" class="hactive-path" data-old_color="#f1cdb3" fill="#f1cdb3"/><circle cx="396.717" cy="174.758" r="9.355" data-original="#000000" class="hactive-path" data-old_color="#f1cdb3" fill="#f1cdb3"/><circle cx="337.242" cy="115.283" r="9.355" data-original="#000000" class="hactive-path" data-old_color="#f1cdb3" fill="#f1cdb3"/><circle cx="174.746" cy="115.283" r="9.355" data-original="#000000" class="hactive-path" data-old_color="#f1cdb3" fill="#f1cdb3"/><circle cx="115.27" cy="174.758" r="9.355" data-original="#000000" class="hactive-path" data-old_color="#f1cdb3" fill="#f1cdb3"/><circle cx="115.27" cy="337.254" r="9.355" data-original="#000000" class="hactive-path" data-old_color="#f1cdb3" fill="#f1cdb3"/><circle cx="174.746" cy="396.729" r="9.355" data-original="#000000" class="hactive-path" data-old_color="#f1cdb3" fill="#f1cdb3"/><circle cx="337.242" cy="396.729" r="9.355" data-original="#000000" class="hactive-path" data-old_color="#f1cdb3" fill="#f1cdb3"/></svg><svg viewBox="0 0 335.802 335.802" id="credit-card_(1)" xmlns="http://www.w3.org/2000/svg"><path d="M290.821 291.621H44.988C20.18 291.621 0 271.428 0 246.633V89.169c0-24.808 20.18-44.988 44.988-44.988h245.826c24.795 0 44.988 20.18 44.988 44.988v157.464c.007 24.801-20.18 44.988-44.981 44.988zM44.988 57.035c-17.725 0-32.134 14.409-32.134 32.134v157.464c0 17.719 14.409 32.134 32.134 32.134h245.826c17.719 0 32.134-14.415 32.134-32.134V89.169c0-17.725-14.415-32.134-32.134-32.134H44.988zm186.757 24.936c16.035 0 29.036 12.995 29.036 29.036s-12.995 29.043-29.036 29.043-29.036-13.001-29.036-29.043 13.001-29.036 29.036-29.036zm40.483 0c16.035 0 29.043 12.995 29.043 29.036s-13.001 29.043-29.043 29.043c-16.041 0-29.036-13.001-29.036-29.043s13.001-29.036 29.036-29.036zM34.544 216.645h53.529v19.281H34.544v-19.281zm71.062 0h53.536v19.281h-53.536v-19.281zm71.048 0h53.548v19.281h-53.548v-19.281zm71.062 0h53.548v19.281h-53.548v-19.281zM34.544 81.977h101.191v19.281H34.544V81.977zm0 38.259h53.542v19.281H34.544v-19.281z" data-original="#000000" class="iactive-path" data-old_color="#000000" fill="#292929"/></svg><svg viewBox="0 0 437.979 437.979" id="envelope" xmlns="http://www.w3.org/2000/svg"><path d="M430.479 78.746H7.5a7.5 7.5 0 00-7.5 7.5v265.487a7.5 7.5 0 007.5 7.5h422.979a7.5 7.5 0 007.5-7.5V86.246a7.5 7.5 0 00-7.5-7.5zm-73.773 162.177c1.173 5.316 2.386 10.813.809 13.54-1.694 2.927-7.169 4.629-12.463 6.275-4.177 1.298-8.495 2.641-12.344 4.868-3.719 2.152-6.936 5.167-10.046 8.083-4.282 4.015-8.326 7.806-11.982 7.806-3.657 0-7.701-3.792-11.982-7.806-3.11-2.916-6.327-5.932-10.046-8.083-3.849-2.227-8.167-3.569-12.344-4.868-5.294-1.646-10.769-3.348-12.462-6.275-1.578-2.727-.365-8.224.808-13.541.963-4.364 1.958-8.876 1.958-13.495s-.995-9.132-1.958-13.496c-1.173-5.316-2.386-10.813-.808-13.541 1.693-2.927 7.168-4.629 12.462-6.275 4.177-1.298 8.495-2.641 12.344-4.868 3.719-2.152 6.936-5.167 10.046-8.083 4.281-4.014 8.325-7.806 11.982-7.806 3.656 0 7.701 3.792 11.982 7.806 3.11 2.916 6.327 5.931 10.046 8.083 3.849 2.226 8.167 3.569 12.344 4.867 5.294 1.646 10.769 3.348 12.462 6.275 1.578 2.727.365 8.224-.808 13.54-.963 4.364-1.958 8.876-1.958 13.496s.995 9.134 1.958 13.498zm-21.679-68.745c-.69-.63-1.391-1.286-2.105-1.955-5.638-5.286-12.653-11.864-22.242-11.864s-16.605 6.578-22.242 11.864c-2.607 2.444-5.07 4.753-7.298 6.042-2.395 1.385-5.741 2.426-9.285 3.527-7.671 2.385-16.364 5.087-20.993 13.087-4.498 7.775-2.563 16.546-.855 24.284.825 3.743 1.605 7.28 1.605 10.264s-.78 6.521-1.605 10.264c-1.481 6.711-3.126 14.197-.605 21.138l-30.416 30.783L25.452 93.746h387.067l-77.492 78.432zm-206.911 46.811L15 333.467V104.509l113.116 114.48zm10.543 10.67l74.991 75.895a7.5 7.5 0 0010.67 0l35.009-35.432c3.94 2.261 8.38 3.65 12.526 4.939 3.544 1.102 6.891 2.142 9.285 3.527 2.228 1.289 4.69 3.598 7.298 6.042 5.637 5.286 12.653 11.864 22.242 11.864 9.588 0 16.604-6.578 22.242-11.864 2.607-2.445 5.069-4.753 7.298-6.043 1.451-.84 3.255-1.552 5.238-2.228l67.063 67.872H25.45l113.209-114.572zm222.306 41.054c3.781-1.982 7.182-4.675 9.533-8.738 4.498-7.775 2.563-16.546.855-24.284-.825-3.743-1.605-7.28-1.605-10.264s.78-6.521 1.605-10.264c1.708-7.738 3.643-16.508-.856-24.284-4.629-8-13.322-10.702-20.993-13.087l-.699-.218 74.174-75.073v228.973l-62.014-62.761z" data-original="#000000" class="jactive-path" data-old_color="#f1cdb3" fill="#f1cdb3"/><path d="M310.68 189.242c-21.056 0-38.186 17.13-38.186 38.185s17.13 38.185 38.186 38.185 38.186-17.13 38.186-38.185-17.131-38.185-38.186-38.185zm0 61.37c-12.784 0-23.186-10.401-23.186-23.185s10.401-23.185 23.186-23.185 23.186 10.401 23.186 23.185-10.402 23.185-23.186 23.185z" data-original="#000000" class="jactive-path" data-old_color="#f1cdb3" fill="#f1cdb3"/></svg><svg viewBox="0 0 512 512" id="facebook_(Black)" xmlns="http://www.w3.org/2000/svg"><path d="M296.296 512H200.36V256h-64v-88.225l64-.029-.104-51.976C200.256 43.794 219.773 0 304.556 0h70.588v88.242h-44.115c-33.016 0-34.604 12.328-34.604 35.342l-.131 44.162h79.346l-9.354 88.225-69.926.029-.064 256z" data-original="#000000" class="kactive-path" data-old_color="#000000" fill="#292929"/></svg><svg viewBox="0 0 97.395 97.395" id="instagram-social-network-logo-of-photo-camera_(Black)" xmlns="http://www.w3.org/2000/svg"><path d="M12.501 0h72.393c6.875 0 12.5 5.09 12.5 12.5v72.395c0 7.41-5.625 12.5-12.5 12.5H12.501C5.624 97.395 0 92.305 0 84.895V12.5C0 5.09 5.624 0 12.501 0zm58.447 10.821a4.395 4.395 0 00-4.383 4.385v10.495a4.396 4.396 0 004.383 4.385h11.008a4.398 4.398 0 004.385-4.385V15.206a4.397 4.397 0 00-4.385-4.385H70.948zm15.439 30.367h-8.572a28.486 28.486 0 011.25 8.355c0 16.2-13.556 29.332-30.275 29.332-16.718 0-30.272-13.132-30.272-29.332 0-2.904.438-5.708 1.25-8.355h-8.945v41.141a3.884 3.884 0 003.872 3.872h67.822a3.883 3.883 0 003.872-3.872V41.188h-.002zM48.789 29.533c-10.802 0-19.56 8.485-19.56 18.953s8.758 18.953 19.56 18.953c10.803 0 19.562-8.485 19.562-18.953s-8.758-18.953-19.562-18.953z" data-original="#000000" class="lactive-path" data-old_color="#000000" fill="#292929"/></svg><svg viewBox="0 0 512.001 512.001" id="leash" xmlns="http://www.w3.org/2000/svg"><path d="M488.935 85.623c-13.304-10.704-32.065-20.222-55.768-28.288C385.694 41.178 322.774 32.28 255.998 32.28S126.303 41.179 78.83 57.335c-23.702 8.066-42.464 17.584-55.768 28.288C7.76 97.937 0 111.523 0 126.002v111.922c0 14.48 7.76 28.066 23.063 40.379 13.304 10.704 32.065 20.222 55.768 28.288C123.926 321.939 182.963 330.73 246 331.573v40.125h-34.485c-3.82-20.186-21.591-35.498-42.871-35.498-24.059 0-43.631 19.573-43.631 43.63 0 10.46 3.71 20.364 10.274 28.13a43.495 43.495 0 00-10.274 28.13c0 24.058 19.572 43.63 43.631 43.63 21.28 0 39.051-15.313 42.871-35.498h88.971c3.82 20.186 21.591 35.498 42.871 35.498 24.059 0 43.631-19.573 43.631-43.63 0-10.46-3.71-20.364-10.274-28.13a43.495 43.495 0 0010.274-28.13c0-24.058-19.572-43.63-43.631-43.63-21.28 0-39.051 15.313-42.871 35.498h-34.485v-40.125c63.037-.843 122.074-9.634 167.169-24.982 23.702-8.066 42.464-17.584 55.768-28.288 15.303-12.313 23.063-25.899 23.063-40.379V126.002c-.003-14.479-7.763-28.065-23.066-40.379zM309.779 391.699a10.002 10.002 0 009.985-10.552 24.944 24.944 0 01-.039-1.316c0-13.03 10.601-23.63 23.631-23.63s23.631 10.601 23.631 23.63c0 7.985-3.998 15.375-10.694 19.77a10 10 0 000 16.72c6.696 4.395 10.694 11.785 10.694 19.77 0 13.03-10.601 23.63-23.631 23.63s-23.631-10.601-23.631-23.63c0-.442.016-.88.039-1.316a9.997 9.997 0 00-9.985-10.552h-107.56a10.002 10.002 0 00-9.985 10.552c.023.436.039.874.039 1.316 0 13.03-10.601 23.63-23.631 23.63s-23.631-10.601-23.631-23.63c0-7.985 3.998-15.375 10.694-19.77a10 10 0 000-16.72c-6.696-4.395-10.694-11.785-10.694-19.77 0-13.03 10.601-23.63 23.631-23.63s23.631 10.601 23.631 23.63c0 .442-.016.88-.039 1.316a9.997 9.997 0 009.985 10.552h107.56zm-53.78-80.052c-13.281 0-24.086-10.805-24.086-24.086s10.805-24.086 24.086-24.086 24.086 10.805 24.086 24.086-10.805 24.086-24.086 24.086zm235.999-73.723c0 31.64-79.799 66.557-198.481 72.755a43.812 43.812 0 006.568-23.119c0-3.151-.339-6.224-.97-9.19 38.811-2.545 74.863-8.336 104.935-16.917 5.31-1.516 8.388-7.049 6.872-12.36-1.516-5.311-7.047-8.388-12.36-6.872-30.861 8.806-68.501 14.549-109.101 16.685-8.092-9.436-20.086-15.431-33.462-15.431-13.446 0-25.498 6.058-33.591 15.581-27.519-1.313-53.67-4.251-77.765-8.784-5.422-1.023-10.655 2.551-11.676 7.978-1.021 5.428 2.551 10.655 7.979 11.677 22.461 4.226 46.596 7.117 71.891 8.647a44.076 44.076 0 00-.923 8.987 43.818 43.818 0 006.568 23.119C99.799 304.482 20 269.565 20 237.924v-74.112l.136.114a95.405 95.405 0 002.926 2.455 108.081 108.081 0 004.085 3.11l.021.015c.746.543 1.507 1.083 2.282 1.62l.346.238c.729.501 1.468 1 2.222 1.495.152.1.308.2.462.3.761.495 1.531.989 2.317 1.478l.339.208c11.818 7.308 26.44 13.952 43.693 19.824 47.473 16.157 110.392 25.055 177.169 25.055s129.696-8.898 177.169-25.055c17.255-5.872 31.878-12.517 43.697-19.826l.335-.205c.787-.49 1.558-.984 2.32-1.48l.46-.298c.754-.495 1.494-.994 2.223-1.495l.346-.238c.775-.537 1.536-1.077 2.282-1.62l.021-.015a107.282 107.282 0 004.085-3.11 97.098 97.098 0 002.926-2.455l.136-.114v74.111zM64.25 167.57c8.711-3.982 20.626-8.555 36.464-12.996 43.033-12.066 98.182-18.71 155.285-18.71s112.252 6.645 155.284 18.71c15.839 4.44 27.755 9.013 36.465 12.996-41.384 18.443-109.127 32.155-191.749 32.155S105.634 186.012 64.25 167.57zm427.685-40.102a19.845 19.845 0 01-.209 1.742l-.013.091a21.345 21.345 0 01-.405 1.825 22.66 22.66 0 01-.384 1.295l-.082.251a25.307 25.307 0 01-.736 1.874c-.106.243-.221.485-.336.728-.23.484-.472.966-.734 1.443l-.07.128c-4.161 7.51-12.016 14.079-19.816 19.209-10.358-5.967-26.97-13.588-52.466-20.737-44.741-12.544-101.806-19.451-160.684-19.451s-115.942 6.908-160.685 19.452c-25.495 7.148-42.106 14.769-52.465 20.737-7.799-5.129-15.654-11.699-19.816-19.209l-.07-.128c-.262-.478-.504-.96-.735-1.445-.114-.242-.229-.483-.334-.725-.09-.204-.175-.409-.259-.614-.171-.42-.334-.84-.478-1.26-.029-.083-.055-.168-.083-.251a22.104 22.104 0 01-.477-1.656 20.765 20.765 0 01-.312-1.464l-.013-.091a19.768 19.768 0 01-.209-1.742 19.03 19.03 0 01-.064-1.468c0-34.87 96.921-73.722 235.999-73.722s235.999 38.852 235.999 73.722c0 .488-.026.977-.063 1.466z" data-original="#000000" class="mactive-path" data-old_color="#f1cdb3" fill="#f1cdb3"/><path d="M411.107 97.502a10.096 10.096 0 00-2.729-5.12 10 10 0 00-1.521-1.24 10.098 10.098 0 00-3.599-1.49 9.898 9.898 0 00-3.91 0c-.64.13-1.26.32-1.87.57-.6.25-1.18.56-1.72.92-.55.36-1.06.78-1.53 1.24-.46.46-.87.98-1.239 1.52a10.096 10.096 0 00-1.49 3.6c-.13.65-.19 1.3-.19 1.95 0 .66.061 1.31.19 1.96a10.096 10.096 0 001.49 3.6c.369.54.779 1.05 1.239 1.52.471.46.981.87 1.53 1.24.54.36 1.12.67 1.72.92.61.25 1.231.44 1.87.57.65.13 1.311.2 1.96.2.65 0 1.311-.07 1.95-.2.64-.13 1.271-.32 1.87-.57.6-.25 1.18-.56 1.729-.92.54-.37 1.061-.78 1.521-1.24.46-.47.88-.98 1.24-1.52a10.096 10.096 0 001.489-3.6c.131-.65.2-1.3.2-1.96 0-.651-.069-1.301-.2-1.95zM371.054 82.289c-34.453-6.482-73.668-9.909-113.403-9.909-54.995 0-108.16 6.528-149.701 18.383-5.31 1.516-8.388 7.049-6.872 12.36 1.252 4.395 5.256 7.259 9.61 7.259.908 0 1.832-.124 2.749-.386 39.806-11.359 91.021-17.615 144.213-17.615 38.516 0 76.451 3.307 109.705 9.564 5.43 1.019 10.655-2.551 11.677-7.979 1.022-5.428-2.551-10.654-7.978-11.677zM120.499 250.812c-.13-.64-.32-1.27-.57-1.88-.25-.6-.56-1.18-.92-1.72a9.63 9.63 0 00-1.25-1.52c-.46-.46-.97-.88-1.52-1.25-.54-.36-1.12-.66-1.721-.91a9.766 9.766 0 00-1.87-.57 9.893 9.893 0 00-3.909 0c-.641.12-1.271.32-1.87.57-.61.25-1.19.55-1.73.91-.55.37-1.06.79-1.52 1.25-.46.46-.88.97-1.24 1.52-.36.54-.67 1.12-.92 1.72-.25.61-.44 1.24-.57 1.88-.13.64-.2 1.3-.2 1.95a10.098 10.098 0 00.77 3.82c.25.61.56 1.19.92 1.73.36.55.78 1.059 1.24 1.52.46.46.97.88 1.52 1.24.54.37 1.12.67 1.73.92.6.25 1.229.45 1.87.57.64.13 1.3.2 1.949.2.65 0 1.311-.07 1.96-.2a9.766 9.766 0 001.87-.57 9.457 9.457 0 001.721-.92 9.57 9.57 0 001.52-1.24 9.87 9.87 0 002.17-3.25 9.839 9.839 0 00.759-3.82c0-.651-.06-1.31-.189-1.95z" data-original="#000000" class="mactive-path" data-old_color="#f1cdb3" fill="#f1cdb3"/></svg><svg viewBox="0 0 512 512" id="pills" xmlns="http://www.w3.org/2000/svg"><path d="M463.452 301.391c-27.946-9.511-64.904-14.749-104.064-14.749-2.448 0-4.887.02-7.315.061-36.43.61-70.55 5.771-96.75 14.688a162.113 162.113 0 00-12.421 4.781V146.374c0-66.968-54.482-121.451-121.451-121.451S0 79.406 0 146.374v219.252c0 66.968 54.482 121.451 121.451 121.451 21.243 0 42.152-5.568 60.469-16.102 11.549-6.642 21.925-15.173 30.703-25.139 6.381 8.963 19.015 18.431 42.701 26.492 27.946 9.511 64.903 14.749 104.063 14.749s76.118-5.238 104.064-14.749C503.577 458.672 512 440.979 512 428.541v-83.363c0-12.438-8.423-30.131-48.548-43.787zm-236.675 43.787a7.058 7.058 0 01.1-1.11l.017-.099c.339-1.807 1.426-3.906 3.427-6.181l.038-.042c.303-.343.634-.691.979-1.042.231-.232.462-.465.709-.697l.291-.272c1.676-1.545 3.695-3.097 6.025-4.615.04-.026.074-.058.113-.084 5.467-3.551 13.07-7.233 23.292-10.712 25.926-8.823 60.595-13.683 97.62-13.683 33.735.001 65.49 4.046 90.481 11.437l-214.01 39.437c-6.425-4.73-9.071-9.113-9.082-12.316v-.021zm-3.875-27.644c-7.709 5.906-12.006 11.907-14.184 17.475a28.22 28.22 0 00-1.586 5.802v.001a27.113 27.113 0 00-.302 2.724l-.017.258c-.024.467-.039.929-.039 1.383v75.359c-18.794 29.197-50.486 46.541-85.323 46.541C65.511 467.077 20 421.566 20 365.626V266h20v54c0 5.523 4.478 10 10 10s10-4.477 10-10v-54h162.902v51.534zm0-71.534H60v-99.626c0-33.884 27.566-61.451 61.451-61.451s61.451 27.567 61.451 61.451c0 5.523 4.478 10 10 10 5.523 0 10-4.477 10-10 0-44.912-36.539-81.451-81.451-81.451C76.539 64.923 40 101.462 40 146.374V246H20v-99.626c0-55.94 45.511-101.451 101.451-101.451s101.451 45.511 101.451 101.451V246zM492 428.541c0 5.971-9.164 16.063-34.992 24.854-25.926 8.823-60.595 13.683-97.62 13.683-37.025 0-71.694-4.859-97.62-13.683-25.828-8.79-34.992-18.882-34.992-24.854v-5.123l.001-.014v-47.819c7.004 4.66 16.29 9.209 28.547 13.38 27.946 9.511 64.904 14.749 104.064 14.749s76.118-5.238 104.064-14.749c12.257-4.172 21.544-8.72 28.548-13.381v52.957zm-34.992-58.51c-25.926 8.823-60.594 13.683-97.62 13.683-34.22 0-66.41-4.159-91.561-11.753l214.52-39.531c6.85 4.897 9.653 9.451 9.653 12.748 0 5.971-9.164 16.063-34.992 24.853z" data-original="#000000" class="nactive-path" data-old_color="#f1cdb3" fill="#f1cdb3"/><path d="M57.069 352.62c-.46-.46-.969-.88-1.519-1.24a9.87 9.87 0 00-1.73-.92c-.6-.25-1.229-.44-1.869-.57a9.847 9.847 0 00-3.9 0c-.64.13-1.27.32-1.88.57-.601.25-1.18.56-1.72.92-.551.36-1.061.78-1.521 1.24-.46.46-.88.97-1.24 1.52-.37.54-.67 1.12-.92 1.73-.25.6-.45 1.23-.569 1.87-.131.64-.2 1.3-.2 1.95 0 .66.069 1.31.2 1.96.119.64.319 1.27.569 1.87.25.6.55 1.18.92 1.73.36.54.78 1.05 1.24 1.52a10.11 10.11 0 005.121 2.73c.64.13 1.3.19 1.95.19a9.847 9.847 0 003.819-.76 9.87 9.87 0 001.73-.92c.55-.37 1.06-.78 1.52-1.24.461-.47.881-.98 1.24-1.52.36-.55.67-1.13.92-1.73.25-.6.45-1.23.58-1.87.13-.65.19-1.3.19-1.96 0-2.63-1.07-5.21-2.931-7.07z" data-original="#000000" class="nactive-path" data-old_color="#f1cdb3" fill="#f1cdb3"/></svg><svg viewBox="0 0 512 512" id="pin" xmlns="http://www.w3.org/2000/svg"><path d="M256 0C161.896 0 85.333 76.563 85.333 170.667c0 28.25 7.063 56.26 20.49 81.104L246.667 506.5c1.875 3.396 5.448 5.5 9.333 5.5s7.458-2.104 9.333-5.5l140.896-254.813c13.375-24.76 20.438-52.771 20.438-81.021C426.667 76.563 350.104 0 256 0zm131.51 241.448L256 479.292l-131.458-237.75c-11.698-21.646-17.875-46.156-17.875-70.875 0-82.344 66.99-149.333 149.333-149.333s149.333 66.99 149.333 149.333c0 24.718-6.177 49.229-17.823 70.781z" data-original="#000000" class="oactive-path" data-old_color="#f1cdb3" fill="#f1cdb3"/><path d="M256 85.333c-47.052 0-85.333 38.281-85.333 85.333C170.667 217.719 208.948 256 256 256s85.333-38.281 85.333-85.333S303.052 85.333 256 85.333zm0 149.334c-35.292 0-64-28.708-64-64s28.708-64 64-64 64 28.708 64 64c0 35.291-28.708 64-64 64z" data-original="#000000" class="oactive-path" data-old_color="#f1cdb3" fill="#f1cdb3"/></svg><svg viewBox="0 0 512 512" id="shampoo" xmlns="http://www.w3.org/2000/svg"><path d="M322.783 146.615v-46.441c0-6.147-4.983-11.13-11.13-11.13h-8.348V11.13c0-6.147-4.983-11.13-11.13-11.13h-72.348c-6.147 0-11.13 4.983-11.13 11.13v77.913h-8.348c-6.147 0-11.13 4.983-11.13 11.13v46.441c-39.087 15.586-66.783 53.816-66.783 98.395v255.86c0 6.147 4.983 11.13 11.13 11.13h244.87c6.147 0 11.13-4.983 11.13-11.13V245.01c-.001-44.58-27.697-82.81-66.783-98.395zM230.957 22.261h50.087v66.783h-50.087V22.261zm-19.479 89.043h89.043v27.826h-89.043v-27.826zm155.826 378.435H144.696V245.01c0-46.108 37.511-83.619 83.618-83.619h55.372c46.108 0 83.618 37.511 83.618 83.619v244.729z" data-original="#000000" class="pactive-path" data-old_color="#f1cdb3" fill="#f1cdb3"/><path d="M328.348 233.739H183.652c-6.147 0-11.13 4.983-11.13 11.13v205.913c0 6.147 4.983 11.13 11.13 11.13h144.696c6.147 0 11.13-4.983 11.13-11.13v-69.95c0-6.147-4.983-11.13-11.13-11.13s-11.13 4.983-11.13 11.13v58.82H194.783V256h122.435v35.232c0 6.147 4.983 11.13 11.13 11.13s11.13-4.983 11.13-11.13V244.87c0-6.148-4.983-11.131-11.13-11.131z" data-original="#000000" class="pactive-path" data-old_color="#f1cdb3" fill="#f1cdb3"/><path d="M328.348 324.816c-6.147 0-11.13 4.983-11.13 11.13v1.113c0 6.147 4.983 11.13 11.13 11.13s11.13-4.983 11.13-11.13v-1.113c0-6.147-4.983-11.13-11.13-11.13zM244.805 351.157c-18.412 0-33.391 14.979-33.391 33.391s14.979 33.391 33.391 33.391 33.391-14.979 33.391-33.391c0-18.411-14.979-33.391-33.391-33.391zm0 44.522c-6.137 0-11.13-4.993-11.13-11.13s4.993-11.13 11.13-11.13c6.137 0 11.13 4.993 11.13 11.13s-4.992 11.13-11.13 11.13zM303.287 307.066c0-18.412-14.979-33.391-33.391-33.391s-33.391 14.979-33.391 33.391 14.979 33.391 33.391 33.391c18.411.001 33.391-14.979 33.391-33.391zm-33.392 11.131c-6.137 0-11.13-4.993-11.13-11.13s4.993-11.13 11.13-11.13c6.137 0 11.13 4.993 11.13 11.13s-4.991 11.13-11.13 11.13z" data-original="#000000" class="pactive-path" data-old_color="#f1cdb3" fill="#f1cdb3"/></svg><svg viewBox="0 0 511.999 511.999" id="syringe" xmlns="http://www.w3.org/2000/svg"><path d="M509.069 135.667L376.333 2.928c-3.905-3.904-10.235-3.904-14.143 0l-35.35 35.348a10.001 10.001 0 000 14.142l41.993 41.992-39.756 39.756-61.193-61.193c-3.906-3.905-10.237-3.904-14.143 0l-40.605 40.605a10.001 10.001 0 000 14.142l12.896 12.896L60.29 306.364c-15.23 15.23-15.23 40.013 0 55.246l12.725 12.725-23.332 23.332a9.999 9.999 0 000 14.142l18.182 18.183L2.93 494.926c-3.905 3.905-3.905 10.237 0 14.143 1.953 1.953 4.512 2.929 7.071 2.929s5.119-.976 7.071-2.929l64.936-64.936 18.183 18.183a10.001 10.001 0 0014.142 0l23.332-23.332 12.725 12.725c7.378 7.378 17.189 11.441 27.623 11.441 10.434 0 20.245-4.063 27.623-11.441L371.38 285.966l12.896 12.896a9.968 9.968 0 007.071 2.929c2.56 0 5.118-.976 7.071-2.929l40.604-40.605a10.001 10.001 0 000-14.142l-61.193-61.193 39.756-39.756 41.992 41.992a9.968 9.968 0 007.071 2.929c2.56 0 5.118-.976 7.071-2.929l35.349-35.349c3.907-3.904 3.907-10.236.001-14.142zM211.08 183.859l46.266 46.266a9.968 9.968 0 007.071 2.929c2.56 0 5.118-.976 7.071-2.929 3.905-3.905 3.905-10.237 0-14.142l-46.266-46.266 14.953-14.953 86.09 86.09-45.733 45.733-86.091-86.091 16.639-16.637zM107.262 441.102l-18.178-18.177-.005-.005-.005-.005-18.178-18.178 16.262-16.26 36.364 36.364-16.26 16.261zm84.23-3.536c-7.432 7.432-19.527 7.433-26.959 0l-90.101-90.1c-7.433-7.433-7.433-19.528 0-26.96l14.244-14.244 24.624 24.624c1.953 1.953 4.512 2.929 7.071 2.929s5.119-.976 7.071-2.929c3.905-3.905 3.905-10.237 0-14.143l-24.624-24.624 16.457-16.458 46.265 46.265c1.953 1.953 4.512 2.929 7.071 2.929s5.119-.977 7.071-2.929c3.905-3.905 3.905-10.237 0-14.142l-46.266-46.266 16.458-16.458 24.624 24.624c1.953 1.953 4.512 2.929 7.071 2.929s5.119-.976 7.071-2.929c3.905-3.905 3.905-10.237 0-14.143l-24.624-24.624 16.278-16.278 86.091 86.09-65.031 65.032c-3.905 3.905-3.905 10.237 0 14.143 1.953 1.953 4.512 2.929 7.071 2.929s5.119-.977 7.071-2.929l65.031-65.032 16.826 16.826-105.861 105.868zm120.011-120.009l-16.826-16.828 45.733-45.734 16.826 16.826-45.733 45.736zm106.306-66.371l-26.462 26.462L234.35 120.652l26.462-26.462 156.997 156.996zm-54.121-82.406l-20.469-20.469 39.756-39.757 20.469 20.469-39.756 39.757zm102.963-4.835L348.055 45.348l21.207-21.207 118.596 118.596-21.207 21.208z" data-original="#000000" class="qactive-path" data-old_color="#f1cdb3" fill="#f1cdb3"/><path d="M190.428 398.683c-.12-.64-.32-1.27-.57-1.87a9.87 9.87 0 00-.92-1.73c-.36-.55-.78-1.06-1.24-1.52s-.97-.88-1.52-1.24a9.87 9.87 0 00-1.73-.92c-.6-.25-1.23-.44-1.87-.57a9.847 9.847 0 00-3.9 0c-.64.13-1.27.32-1.87.57-.61.25-1.19.56-1.73.92-.55.36-1.06.78-1.52 1.24s-.88.97-1.24 1.52c-.36.539-.67 1.12-.92 1.73-.25.6-.45 1.23-.57 1.87-.13.64-.2 1.3-.2 1.95s.07 1.31.2 1.96c.12.63.32 1.26.57 1.87.25.6.56 1.18.92 1.72.36.55.78 1.06 1.24 1.52a9.87 9.87 0 003.25 2.17 9.84 9.84 0 003.82.76 9.84 9.84 0 003.82-.76 9.87 9.87 0 003.25-2.17c.46-.46.88-.97 1.24-1.52.36-.54.67-1.12.92-1.72.25-.61.45-1.24.57-1.87.13-.65.2-1.31.2-1.96 0-.65-.07-1.31-.2-1.95z" data-original="#000000" class="qactive-path" data-old_color="#f1cdb3" fill="#f1cdb3"/></svg><svg viewBox="0 0 427.922 427.922" id="telephone" xmlns="http://www.w3.org/2000/svg"><path d="M427.345 139.789l-26.06-62.542a7.498 7.498 0 00-5.041-4.375l-31.323-8.121c-91.706-23.776-210.218-23.775-301.92 0l-31.324 8.121a7.498 7.498 0 00-5.041 4.375L.577 139.789a7.5 7.5 0 00-.141 5.407l10.423 29.186a7.498 7.498 0 008.534 4.832l99.025-19.805a7.502 7.502 0 005.925-6.105l8.575-50.781c47.199-11.86 114.886-11.86 162.083 0l8.576 50.782a7.5 7.5 0 005.925 6.105l99.024 19.805a7.504 7.504 0 008.535-4.832l10.424-29.186a7.508 7.508 0 00-.14-5.408zM22.807 163.235l-5.35-14.981 95.913-20.047-2.956 17.507-87.607 17.521zm101.527-73.962a7.497 7.497 0 00-5.4 5.981l-2.882 17.068-96.155 20.098 19.152-45.963 27.716-7.186c89.417-23.182 204.972-23.183 294.393 0l27.716 7.186 19.152 45.963-96.155-20.098-2.882-17.068a7.5 7.5 0 00-5.4-5.981c-51.098-14.101-128.159-14.101-179.255 0zm280.78 73.962l-87.605-17.521-2.957-17.507 95.913 20.047-5.351 14.981z" data-original="#000000" class="ractive-path" data-old_color="#f1cdb3" fill="#f1cdb3"/><path d="M356.139 183.878a7.501 7.501 0 00-5.755-5.709l-51.079-10.918-6.431-41.886a7.5 7.5 0 00-7.413-6.362h-20v-9.82c0-4.142-3.357-7.5-7.5-7.5s-7.5 3.358-7.5 7.5v9.82h-73v-9.82c0-4.142-3.357-7.5-7.5-7.5s-7.5 3.358-7.5 7.5v9.82h-20a7.5 7.5 0 00-7.413 6.362l-6.432 41.886-51.078 10.918a7.501 7.501 0 00-5.755 5.709L37.1 340.159a7.533 7.533 0 00-.178 1.625v31.719a7.5 7.5 0 007.5 7.5H383.5a7.5 7.5 0 007.5-7.5v-31.719c0-.546-.06-1.091-.178-1.625l-34.683-156.281zM85.384 191.83l51.428-10.993a7.5 7.5 0 005.846-6.196l6.24-40.638h130.127l6.239 40.638a7.5 7.5 0 005.846 6.196l51.429 10.993 31.615 142.454H53.769L85.384 191.83zM126.2 349.284l-9.661 16.719h-11.401l9.661-16.719H126.2zm17.325 0h163.21l-9.661 16.719h-163.21l9.661-16.719zm-91.603 0h45.552l-9.661 16.719H51.922v-16.719zm262.477 16.719l9.661-16.719H376v16.719h-61.601z" data-original="#000000" class="ractive-path" data-old_color="#f1cdb3" fill="#f1cdb3"/><path d="M213.961 320.038c44.388 0 80.5-36.112 80.5-80.5s-36.112-80.5-80.5-80.5-80.5 36.112-80.5 80.5 36.112 80.5 80.5 80.5zm0-146c36.117 0 65.5 29.383 65.5 65.5s-29.383 65.5-65.5 65.5-65.5-29.383-65.5-65.5 29.383-65.5 65.5-65.5z" data-original="#000000" class="ractive-path" data-old_color="#f1cdb3" fill="#f1cdb3"/><path d="M213.961 268.091c15.744 0 28.554-12.809 28.554-28.554s-12.81-28.554-28.554-28.554c-15.745 0-28.555 12.809-28.555 28.554s12.81 28.554 28.555 28.554zm0-42.108c7.474 0 13.554 6.08 13.554 13.554s-6.08 13.554-13.554 13.554-13.555-6.08-13.555-13.554c0-7.473 6.081-13.554 13.555-13.554z" data-original="#000000" class="ractive-path" data-old_color="#f1cdb3" fill="#f1cdb3"/></svg><svg viewBox="0 0 427.922 427.922" id="telephone_(Black)" xmlns="http://www.w3.org/2000/svg"><path d="M427.345 139.789l-26.06-62.542a7.498 7.498 0 00-5.041-4.375l-31.323-8.121c-91.706-23.776-210.218-23.775-301.92 0l-31.324 8.121a7.498 7.498 0 00-5.041 4.375L.577 139.789a7.5 7.5 0 00-.141 5.407l10.423 29.186a7.498 7.498 0 008.534 4.832l99.025-19.805a7.502 7.502 0 005.925-6.105l8.575-50.781c47.199-11.86 114.886-11.86 162.083 0l8.576 50.782a7.5 7.5 0 005.925 6.105l99.024 19.805a7.504 7.504 0 008.535-4.832l10.424-29.186a7.508 7.508 0 00-.14-5.408zM22.807 163.235l-5.35-14.981 95.913-20.047-2.956 17.507-87.607 17.521zm101.527-73.962a7.497 7.497 0 00-5.4 5.981l-2.882 17.068-96.155 20.098 19.152-45.963 27.716-7.186c89.417-23.182 204.972-23.183 294.393 0l27.716 7.186 19.152 45.963-96.155-20.098-2.882-17.068a7.5 7.5 0 00-5.4-5.981c-51.098-14.101-128.159-14.101-179.255 0zm280.78 73.962l-87.605-17.521-2.957-17.507 95.913 20.047-5.351 14.981z" data-original="#000000" class="sactive-path" data-old_color="#000000" fill="#292929"/><path d="M356.139 183.878a7.501 7.501 0 00-5.755-5.709l-51.079-10.918-6.431-41.886a7.5 7.5 0 00-7.413-6.362h-20v-9.82c0-4.142-3.357-7.5-7.5-7.5s-7.5 3.358-7.5 7.5v9.82h-73v-9.82c0-4.142-3.357-7.5-7.5-7.5s-7.5 3.358-7.5 7.5v9.82h-20a7.5 7.5 0 00-7.413 6.362l-6.432 41.886-51.078 10.918a7.501 7.501 0 00-5.755 5.709L37.1 340.159a7.533 7.533 0 00-.178 1.625v31.719a7.5 7.5 0 007.5 7.5H383.5a7.5 7.5 0 007.5-7.5v-31.719c0-.546-.06-1.091-.178-1.625l-34.683-156.281zM85.384 191.83l51.428-10.993a7.5 7.5 0 005.846-6.196l6.24-40.638h130.127l6.239 40.638a7.5 7.5 0 005.846 6.196l51.429 10.993 31.615 142.454H53.769L85.384 191.83zM126.2 349.284l-9.661 16.719h-11.401l9.661-16.719H126.2zm17.325 0h163.21l-9.661 16.719h-163.21l9.661-16.719zm-91.603 0h45.552l-9.661 16.719H51.922v-16.719zm262.477 16.719l9.661-16.719H376v16.719h-61.601z" data-original="#000000" class="sactive-path" data-old_color="#000000" fill="#292929"/><path d="M213.961 320.038c44.388 0 80.5-36.112 80.5-80.5s-36.112-80.5-80.5-80.5-80.5 36.112-80.5 80.5 36.112 80.5 80.5 80.5zm0-146c36.117 0 65.5 29.383 65.5 65.5s-29.383 65.5-65.5 65.5-65.5-29.383-65.5-65.5 29.383-65.5 65.5-65.5z" data-original="#000000" class="sactive-path" data-old_color="#000000" fill="#292929"/><path d="M213.961 268.091c15.744 0 28.554-12.809 28.554-28.554s-12.81-28.554-28.554-28.554c-15.745 0-28.555 12.809-28.555 28.554s12.81 28.554 28.555 28.554zm0-42.108c7.474 0 13.554 6.08 13.554 13.554s-6.08 13.554-13.554 13.554-13.555-6.08-13.555-13.554c0-7.473 6.081-13.554 13.555-13.554z" data-original="#000000" class="sactive-path" data-old_color="#000000" fill="#292929"/></svg><svg viewBox="0 0 612 612" id="twitter-logo-silhouette_(Black)" xmlns="http://www.w3.org/2000/svg"><path d="M612 116.258a250.714 250.714 0 01-72.088 19.772c25.929-15.527 45.777-40.155 55.184-69.411-24.322 14.379-51.169 24.82-79.775 30.48-22.907-24.437-55.49-39.658-91.63-39.658-69.334 0-125.551 56.217-125.551 125.513 0 9.828 1.109 19.427 3.251 28.606-104.326-5.24-196.835-55.223-258.75-131.174-10.823 18.51-16.98 40.078-16.98 63.101 0 43.559 22.181 81.993 55.835 104.479a125.556 125.556 0 01-56.867-15.756v1.568c0 60.806 43.291 111.554 100.693 123.104-10.517 2.83-21.607 4.398-33.08 4.398-8.107 0-15.947-.803-23.634-2.333 15.985 49.907 62.336 86.199 117.253 87.194-42.947 33.654-97.099 53.655-155.916 53.655-10.134 0-20.116-.612-29.944-1.721 55.567 35.681 121.536 56.485 192.438 56.485 230.948 0 357.188-191.291 357.188-357.188l-.421-16.253c24.666-17.593 46.005-39.697 62.794-64.861z" data-original="#010002" class="tactive-path" data-old_color="#010002" fill="#292929"/></svg></svg>